<?xml version="1.0" encoding="utf-8"?>
<!-- Svg Vector Icons : http://www.onlinewebfonts.com/icon -->
<!DOCTYPE svg PUBLIC "-//W3C//DTD SVG 1.1//EN" "http://www.w3.org/Graphics/SVG/1.1/DTD/svg11.dtd">
<svg version="1.1" xmlns="http://www.w3.org/2000/svg" xmlns:xlink="http://www.w3.org/1999/xlink" x="0px" y="0px" viewBox="0 0 1000 1000" enable-background="new 0 0 1000 1000" xml:space="preserve">
<metadata> Svg Vector Icons : http://www.onlinewebfonts.com/icon </metadata>
<g><g transform="translate(0.000000,64.000000) scale(0.100000,-0.100000)"><path d="M5612.5-954c-1124.8-489.9-1392-1982.3-512.3-2862.1c723.9-723.9,1748.4-723.9,2472.2,0C8953.4-2435.2,7405.4-174.5,5612.5-954z"/><path d="M1436.4-2802.6v-668.2H768.2H100v-445.5v-445.5h668.2h668.2v-668.2v-668.2h445.5h445.5v668.2v668.2h668.2h668.2v445.5v445.5h-668.2h-668.2v668.2v668.2h-445.5h-445.5V-2802.6z"/><path d="M5044.5-5419.7c-846.4-178.3-1726.1-623.7-2037.9-1013.5c-167-222.7-233.9-456.5-233.9-890.9v-601.3h3563.6H9900v601.3c0,735.1-233.8,1069.2-1024.6,1470C7773-5297.2,6347.5-5130.2,5044.5-5419.7z"/></g></g>
</svg>