<?xml version="1.0" encoding="utf-8"?>
<!-- Generator: Adobe Illustrator 26.3.1, SVG Export Plug-In . SVG Version: 6.00 Build 0)  -->
<svg version="1.1" id="Layer_1" xmlns="http://www.w3.org/2000/svg" xmlns:xlink="http://www.w3.org/1999/xlink" x="0px" y="0px"
	 viewBox="0 0 850.39 283.46" style="enable-background:new 0 0 850.39 283.46;" xml:space="preserve">
<style type="text/css">
	.st0{fill:#6CC396;}
	.st1{enable-background:new    ;}
	.st2{fill:#FCFAF2;}
</style>
<g id="Ellipse_41">
	<circle class="st0" cx="76.17" cy="125.05" r="72.18"/>
</g>
<g class="st1">
	<path class="st2" d="M234.11,178.04c-28.73,0-52.12-21.51-52.12-51.97s23.39-51.83,52.12-51.83c28.87,0,51.83,21.37,51.83,51.83
		S262.84,178.04,234.11,178.04z M234.11,155.52c16.17,0,26.71-11.69,26.71-29.45c0-18.05-10.54-29.45-26.71-29.45
		c-16.46,0-26.85,11.4-26.85,29.45C207.26,143.82,217.65,155.52,234.11,155.52z"/>
	<path class="st2" d="M324.34,177.03h-24.69V96.47h24.69v13.43c5.63-8.52,14.44-14.29,25.26-14.29v26.13h-6.79
		c-11.69,0-18.48,4.04-18.48,17.9V177.03z"/>
	<path class="st2" d="M392.04,95.32c11.84,0,20.5,5.34,24.83,12.56v-11.4h24.69v80.41c0,21.51-12.42,39.84-40.28,39.84
		c-23.96,0-39.56-12.13-41.72-31.33h24.4c1.59,6.06,7.65,9.96,16.17,9.96c9.38,0,16.75-4.91,16.75-18.48v-11.4
		c-4.48,7.07-12.99,12.7-24.83,12.7c-19.78,0-35.51-16.17-35.51-41.58C356.53,111.2,372.27,95.32,392.04,95.32z M399.26,116.83
		c-9.24,0-17.61,6.93-17.61,19.78c0,12.85,8.37,20.07,17.61,20.07c9.38,0,17.61-7.07,17.61-19.92S408.64,116.83,399.26,116.83z"/>
	<path class="st2" d="M490.07,95.32c11.98,0,20.5,5.49,24.83,12.56v-11.4h24.69v80.55H514.9v-11.4
		c-4.47,7.07-12.99,12.56-24.97,12.56c-19.63,0-35.37-16.17-35.37-41.58C454.55,111.2,470.29,95.32,490.07,95.32z M497.28,116.83
		c-9.24,0-17.61,6.93-17.61,19.78c0,12.85,8.37,20.07,17.61,20.07c9.38,0,17.61-7.07,17.61-19.92S506.67,116.83,497.28,116.83z"/>
	<path class="st2" d="M613.06,133.28c0-10.97-6.06-17.03-15.45-17.03c-9.38,0-15.45,6.06-15.45,17.03v43.74h-24.69V96.47h24.69
		v10.68c4.91-6.78,13.57-11.55,24.4-11.55c18.62,0,31.04,12.7,31.04,34.36v47.06h-24.54V133.28z"/>
	<path class="st2" d="M652.48,74.82c0-7.51,5.92-13.43,14.73-13.43c8.66,0,14.58,5.92,14.58,13.43c0,7.36-5.92,13.28-14.58,13.28
		C658.39,88.1,652.48,82.18,652.48,74.82z M654.79,96.47h24.69v80.55h-24.69V96.47z"/>
	<path class="st2" d="M754.69,116.1l-34.21,40.57h34.94v20.36H692.9v-19.63l33.49-40.57h-33.2V96.47h61.5V116.1z"/>
	<path class="st2" d="M804.78,178.18c-23.68,0-40.71-15.88-40.71-41.43c0-25.55,16.75-41.43,40.71-41.43
		c23.53,0,40.13,15.59,40.13,40.13c0,2.31-0.14,4.76-0.43,7.22h-55.87c0.87,10.54,7.36,15.45,15.3,15.45
		c6.93,0,10.83-3.46,12.85-7.8h26.27C839.14,166.05,824.85,178.18,804.78,178.18z M788.75,128.95h30.89
		c0-8.81-6.93-13.86-15.16-13.86C796.41,115.09,790.2,120,788.75,128.95z"/>
</g>
</svg>
