<?xml version="1.0" encoding="utf-8"?>
<!-- Generator: Adobe Illustrator 26.3.1, SVG Export Plug-In . SVG Version: 6.00 Build 0)  -->
<svg version="1.1" id="Layer_1" xmlns="http://www.w3.org/2000/svg" xmlns:xlink="http://www.w3.org/1999/xlink" x="0px" y="0px"
	 viewBox="0 0 850.4 283.5" style="enable-background:new 0 0 850.4 283.5;" xml:space="preserve">
<style type="text/css">
	.st0{fill:#6CC396;}
	.st1{enable-background:new    ;}
	.st2{fill:#FCFAF2;}
</style>
<g id="Ellipse_41">
	<circle class="st0" cx="76.2" cy="125.1" r="72.2"/>
</g>
<g class="st1">
	<path class="st2" d="M234.1,178c-28.7,0-52.1-21.5-52.1-52s23.4-51.8,52.1-51.8c28.9,0,51.8,21.4,51.8,51.8S262.8,178,234.1,178z
		 M234.1,155.5c16.2,0,26.7-11.7,26.7-29.4c0-18.1-10.5-29.4-26.7-29.4c-16.5,0-26.9,11.4-26.9,29.4
		C207.3,143.8,217.6,155.5,234.1,155.5z"/>
	<path class="st2" d="M324.3,177h-24.7V96.5h24.7v13.4c5.6-8.5,14.4-14.3,25.3-14.3v26.1h-6.8c-11.7,0-18.5,4-18.5,17.9L324.3,177
		L324.3,177z"/>
	<path class="st2" d="M392,95.3c11.8,0,20.5,5.3,24.8,12.6V96.5h24.7v80.4c0,21.5-12.4,39.8-40.3,39.8c-24,0-39.6-12.1-41.7-31.3
		H384c1.6,6.1,7.6,10,16.2,10c9.4,0,16.8-4.9,16.8-18.5v-11.4c-4.5,7.1-13,12.7-24.8,12.7c-19.8,0-35.5-16.2-35.5-41.6
		C356.5,111.2,372.3,95.3,392,95.3z M399.3,116.8c-9.2,0-17.6,6.9-17.6,19.8s8.4,20.1,17.6,20.1c9.4,0,17.6-7.1,17.6-19.9
		S408.6,116.8,399.3,116.8z"/>
	<path class="st2" d="M490.1,95.3c12,0,20.5,5.5,24.8,12.6V96.5h24.7V177h-24.7v-11.4c-4.5,7.1-13,12.6-25,12.6
		c-19.6,0-35.4-16.2-35.4-41.6C454.5,111.2,470.3,95.3,490.1,95.3z M497.3,116.8c-9.2,0-17.6,6.9-17.6,19.8s8.4,20.1,17.6,20.1
		c9.4,0,17.6-7.1,17.6-19.9S506.7,116.8,497.3,116.8z"/>
	<path class="st2" d="M613.1,133.3c0-11-6.1-17-15.5-17c-9.4,0-15.5,6.1-15.5,17V177h-24.7V96.5h24.7v10.7
		c4.9-6.8,13.6-11.6,24.4-11.6c18.6,0,31,12.7,31,34.4V177h-24.5V133.3z"/>
	<path class="st2" d="M652.5,74.8c0-7.5,5.9-13.4,14.7-13.4c8.7,0,14.6,5.9,14.6,13.4c0,7.4-5.9,13.3-14.6,13.3
		C658.4,88.1,652.5,82.2,652.5,74.8z M654.8,96.5h24.7V177h-24.7V96.5z"/>
	<path class="st2" d="M754.7,116.1l-34.2,40.6h34.9V177h-62.5v-19.6l33.5-40.6h-33.2V96.5h61.5V116.1z"/>
	<path class="st2" d="M804.8,178.2c-23.7,0-40.7-15.9-40.7-41.4s16.8-41.4,40.7-41.4c23.5,0,40.1,15.6,40.1,40.1
		c0,2.3-0.1,4.8-0.4,7.2h-55.9c0.9,10.5,7.4,15.4,15.3,15.4c6.9,0,10.8-3.5,12.8-7.8H843C839.1,166.1,824.8,178.2,804.8,178.2z
		 M788.8,128.9h30.9c0-8.8-6.9-13.9-15.2-13.9C796.4,115.1,790.2,120,788.8,128.9z"/>
</g>
</svg>
