<svg xmlns="http://www.w3.org/2000/svg" width="150" height="64" viewBox="0 0 150 64">
  <g id="Path_46" data-name="Path 46" fill="none" stroke-dasharray="10">
    <path d="M4.907,0H145.093C147.8,0,150,1.337,150,2.987V61.013c0,1.649-2.2,2.987-4.907,2.987H4.907C2.2,64,0,62.663,0,61.013V2.987C0,1.337,2.2,0,4.907,0Z" stroke="none"/>
    <path d="M 4.906539916992188 0 L 14.90653991699219 0 L 14.90653991699219 1 L 4.906539916992188 1 L 4.906539916992188 0 C 4.906539916992188 0 4.906539916992188 0 4.906539916992188 0 Z M 24.90653991699219 0 L 34.90653991699219 0 L 34.90653991699219 1 L 24.90653991699219 1 L 24.90653991699219 0 Z M 44.90653991699219 0 L 54.90653991699219 0 L 54.90653991699219 1 L 44.90653991699219 1 L 44.90653991699219 0 Z M 64.90653991699219 0 L 74.90653991699219 0 L 74.90653991699219 1 L 64.90653991699219 1 L 64.90653991699219 0 Z M 84.90653991699219 0 L 94.90653991699219 0 L 94.90653991699219 1 L 84.90653991699219 1 L 84.90653991699219 0 Z M 104.9065399169922 0 L 114.9065399169922 0 L 114.9065399169922 1 L 104.9065399169922 1 L 104.9065399169922 0 Z M 124.9065399169922 0 L 134.9065399169922 0 L 134.9065399169922 1 L 124.9065399169922 1 L 124.9065399169922 0 Z M 144.9065399169922 0 L 145.0934600830078 0 C 147.8032836914062 0 150 1.337181091308594 150 2.986660003662109 C 150 2.986660003662109 150 6.507659912109375 150 6.507659912109375 L 149 6.507659912109375 L 149 2.986660003662109 C 149 2.048858642578125 147.329345703125 1 145.0934600830078 1 L 144.9065399169922 1 L 144.9065399169922 0 Z M 149 16.50765991210938 L 150 16.50765991210938 C 150 16.50765991210938 150 26.50765991210938 150 26.50765991210938 L 149 26.50765991210938 L 149 16.50765991210938 Z M 149 36.50765991210938 L 150 36.50765991210938 C 150 36.50765991210938 150 46.50765991210938 150 46.50765991210938 L 149 46.50765991210938 L 149 36.50765991210938 Z M 149 56.50765991210938 L 150 56.50765991210938 C 150 56.50765991210938 150 61.01333999633789 150 61.01333999633789 C 150 61.01333999633789 150 61.01333999633789 150 61.01333999633789 C 150 61.01485061645508 150 61.01642227172852 150 61.0179328918457 C 150 61.01838684082031 149.9999847412109 61.01899719238281 149.9999847412109 61.01944732666016 C 149.9999847412109 61.02055358886719 149.9999847412109 61.0214729309082 149.9999694824219 61.02257919311523 C 149.9999694824219 61.02312088012695 149.9999694824219 61.02373504638672 149.9999694824219 61.0242805480957 C 149.9999542236328 61.02528381347656 149.9999542236328 61.02618026733398 149.9999542236328 61.02718353271484 C 149.9999389648438 61.02872467041016 149.9999237060547 61.03026580810547 149.9999084472656 61.03180313110352 C 149.9999084472656 61.03243637084961 149.9998931884766 61.03306579589844 149.9998931884766 61.03369903564453 C 149.9998779296875 61.03470230102539 149.9998626708984 61.03544998168945 149.9998474121094 61.03645706176758 C 149.9998321533203 61.03799438476562 149.9998168945312 61.03950500488281 149.9997863769531 61.04104232788086 C 149.9997863769531 61.04167175292969 149.9997711181641 61.04235458374023 149.999755859375 61.04298782348633 C 149.9997406005859 61.04399108886719 149.9997253417969 61.04481887817383 149.9997100830078 61.04582595825195 C 149.9997100830078 61.04636764526367 149.9996948242188 61.0469970703125 149.9996795654297 61.04753875732422 C 149.9996643066406 61.04864120483398 149.9996490478516 61.04949188232422 149.9996185302734 61.05059432983398 C 149.9996185302734 61.0511360168457 149.9996032714844 61.05165863037109 149.9995880126953 61.05220031738281 C 149.9995574951172 61.05360412597656 149.9995269775391 61.05517578125 149.9994964599609 61.05657958984375 C 149.9994964599609 61.0567626953125 149.9994964599609 61.05684661865234 149.9994812011719 61.05702590942383 C 149.9994506835938 61.05842971801758 149.9994201660156 61.05990219116211 149.9993743896484 61.06130599975586 C 149.9993591308594 61.06184768676758 149.9993438720703 61.06241989135742 149.9993286132812 61.06296157836914 C 149.9993133544922 61.06396484375 149.9992828369141 61.0649528503418 149.9992523193359 61.06595611572266 C 149.9992065429688 61.06748962402344 149.9991607666016 61.06893539428711 149.9991149902344 61.07046890258789 C 149.9990692138672 61.07200241088867 149.9990234375 61.07357406616211 149.9989776611328 61.07510757446289 C 149.9989166259766 61.0765380859375 149.9988555908203 61.07830429077148 149.9988098144531 61.07973480224609 C 149.9987487792969 61.08126831054688 149.9987030029297 61.08282089233398 149.9986419677734 61.08435440063477 C 149.9985809326172 61.08588409423828 149.9985198974609 61.08734130859375 149.9984588623047 61.08887100219727 C 149.9983978271484 61.09040069580078 149.9983215332031 61.0921630859375 149.9982604980469 61.09369277954102 C 149.9982299804688 61.09423446655273 149.9981994628906 61.09495544433594 149.9981842041016 61.09549713134766 C 149.9981079101562 61.09699630737305 149.998046875 61.09838104248047 149.9979858398438 61.09988021850586 C 149.9979705810547 61.10006332397461 149.9979705810547 61.10013961791992 149.9979553222656 61.10031890869141 C 149.9978942871094 61.10171890258789 149.9978179931641 61.10317611694336 149.9977569580078 61.10457611083984 C 149.9976806640625 61.10611343383789 149.9976043701172 61.10762786865234 149.9975280761719 61.10916519165039 C 149.9974365234375 61.11069488525391 149.9973602294922 61.11223983764648 149.9972839355469 61.11376571655273 C 149.9971923828125 61.11529541015625 149.9971160888672 61.11684036254883 149.9970245361328 61.11836624145508 C 149.9969482421875 61.11979675292969 149.9968414306641 61.12150573730469 149.9967498779297 61.12293243408203 C 149.9966735839844 61.12445831298828 149.99658203125 61.12592697143555 149.9964904785156 61.1274528503418 C 149.9963836669922 61.12897872924805 149.9962768554688 61.13068008422852 149.9961853027344 61.13220596313477 C 149.9960784912109 61.13383102416992 149.9959716796875 61.13537216186523 149.9958648681641 61.13699722290039 C 149.9958343505859 61.13753509521484 149.9958038330078 61.13808441162109 149.9957580566406 61.13862228393555 C 149.9956665039062 61.14011383056641 149.9955596923828 61.14165115356445 149.9954528808594 61.14314270019531 C 149.9954528808594 61.14314270019531 149.9954528808594 61.1431884765625 149.9954528808594 61.1431884765625 C 149.9953460693359 61.14468383789062 149.9952392578125 61.14617919921875 149.9951324462891 61.14767456054688 C 149.9950866699219 61.14812088012695 149.9950561523438 61.14868927001953 149.9950103759766 61.14913940429688 C 149.9949340820312 61.15023422241211 149.9948577880859 61.15125274658203 149.9947814941406 61.15234756469727 C 149.9946594238281 61.15388107299805 149.9945526123047 61.15528869628906 149.9944305419922 61.15682220458984 C 149.9943237304688 61.15834426879883 149.9942016601562 61.15985870361328 149.9940795898438 61.16138076782227 C 149.9939575195312 61.16280364990234 149.9938354492188 61.16437911987305 149.9937133789062 61.16580200195312 C 149.9935760498047 61.16749954223633 149.9934692382812 61.16879272460938 149.9933166503906 61.17049407958984 C 149.9931945800781 61.17201232910156 149.9930572509766 61.1735954284668 149.992919921875 61.17511367797852 C 149.9927825927734 61.17673492431641 149.9926300048828 61.17850112915039 149.9924774169922 61.18011856079102 C 149.992431640625 61.18056488037109 149.9923858642578 61.18109512329102 149.9923553466797 61.18154144287109 C 149.9922180175781 61.18303298950195 149.9920654296875 61.18460464477539 149.9919281005859 61.18609619140625 C 149.9919128417969 61.18618392944336 149.9919128417969 61.18625640869141 149.9918975830078 61.18634414672852 C 149.9917755126953 61.1877326965332 149.9916381835938 61.1891975402832 149.9915008544922 61.19058990478516 C 149.9913635253906 61.1920166015625 149.9911956787109 61.19372177124023 149.9910583496094 61.19515228271484 C 149.9909210205078 61.19656753540039 149.9907531738281 61.19821166992188 149.9906158447266 61.19963073730469 C 149.9904632568359 61.20104598999023 149.9902954101562 61.20276260375977 149.9901428222656 61.20417785644531 C 149.989990234375 61.20568466186523 149.9898223876953 61.20725631713867 149.9896697998047 61.20876312255859 C 149.989501953125 61.21027755737305 149.9893341064453 61.21186828613281 149.9891662597656 61.21338653564453 C 149.9889984130859 61.21500015258789 149.9888305664062 61.21649551391602 149.9886474609375 61.21810913085938 C 149.9885864257812 61.21864318847656 149.988525390625 61.21926498413086 149.9884643554688 61.21979904174805 C 149.9883422851562 61.22088623046875 149.9882202148438 61.22195434570312 149.9880981445312 61.22304153442383 C 149.988037109375 61.22348785400391 149.9879913330078 61.22391128540039 149.9879455566406 61.22435760498047 C 149.9875946044922 61.22732543945312 149.9872283935547 61.23045349121094 149.9868774414062 61.23342132568359 C 149.9866943359375 61.23494338989258 149.9865264892578 61.23640823364258 149.986328125 61.23793029785156 C 149.9861450195312 61.23944091796875 149.9859771728516 61.24089431762695 149.9857788085938 61.24240493774414 C 149.985595703125 61.24391555786133 149.9853973388672 61.24545288085938 149.9852142333984 61.24696350097656 C 149.9850311279297 61.24837493896484 149.9848022460938 61.25012969970703 149.984619140625 61.25154113769531 C 149.9844207763672 61.2530517578125 149.9842071533203 61.25470733642578 149.9840087890625 61.2562141418457 C 149.9838104248047 61.25773620605469 149.9835968017578 61.25930786132812 149.9833984375 61.26082611083984 C 149.9833221435547 61.26135635375977 149.9832458496094 61.26195526123047 149.9831695556641 61.26248550415039 C 149.9830169677734 61.26357269287109 149.9828948974609 61.26450347900391 149.9827423095703 61.26558685302734 C 149.9826812744141 61.26602935791016 149.9826049804688 61.26657867431641 149.9825439453125 61.26702499389648 C 149.9821472167969 61.26998138427734 149.9817047119141 61.27309036254883 149.9812774658203 61.27604293823242 C 149.9810638427734 61.27756118774414 149.9808502197266 61.27899932861328 149.9806365966797 61.28051376342773 C 149.9804077148438 61.28202056884766 149.9801940917969 61.28356170654297 149.9799652099609 61.28506469726562 C 149.979736328125 61.28657150268555 149.9795074462891 61.28815078735352 149.9792785644531 61.28965377807617 C 149.9790344238281 61.29125595092773 149.9788513183594 61.29252243041992 149.9786071777344 61.29412460327148 C 149.9783630371094 61.29562759399414 149.9781494140625 61.29710388183594 149.9779052734375 61.29860687255859 C 149.9776763916016 61.30010986328125 149.9774169921875 61.30173110961914 149.9771881103516 61.3032341003418 C 149.9769287109375 61.30483627319336 149.9766845703125 61.30632781982422 149.9764404296875 61.30792617797852 C 149.9763488769531 61.30845642089844 149.9762573242188 61.30901336669922 149.9761657714844 61.30954360961914 C 149.9759674072266 61.31082153320312 149.9757385253906 61.31219863891602 149.9755401611328 61.31347274780273 C 149.9754486083984 61.31400299072266 149.9753570556641 61.31450653076172 149.9752807617188 61.31503677368164 C 149.97509765625 61.31611633300781 149.9748992919922 61.31730651855469 149.9747161865234 61.31838607788086 C 149.9744720458984 61.31988525390625 149.9741973876953 61.32147216796875 149.9739532470703 61.32297134399414 C 149.9736938476562 61.32447052001953 149.9734497070312 61.32592391967773 149.9731903076172 61.32742309570312 C 149.9729309082031 61.32891845703125 149.97265625 61.33049392700195 149.9723968505859 61.33199310302734 C 149.9721374511719 61.33348846435547 149.9718780517578 61.33495330810547 149.9716186523438 61.33644866943359 C 149.9713592529297 61.33794784545898 149.9710845947266 61.3394775390625 149.9708099365234 61.34097290039062 C 149.9705505371094 61.34246826171875 149.9702758789062 61.34399032592773 149.9700012207031 61.34548568725586 C 149.9697113037109 61.34708023071289 149.9693908691406 61.34884643554688 149.9690856933594 61.35044097900391 C 149.9690093994141 61.35087966918945 149.9689331054688 61.35134506225586 149.9688415527344 61.35178375244141 C 149.9685668945312 61.35325241088867 149.9682769775391 61.35480117797852 149.9680023193359 61.35626602172852 C 149.9679718017578 61.35644149780273 149.9679718017578 61.35648345947266 149.9679412841797 61.35665893554688 C 149.9676818847656 61.35802841186523 149.9674224853516 61.359375 149.9671630859375 61.36074066162109 C 149.9668731689453 61.36224365234375 149.9665985107422 61.36368179321289 149.96630859375 61.36518478393555 C 149.9660186767578 61.36667633056641 149.9657287597656 61.36817932128906 149.9654388427734 61.36967468261719 C 149.9651489257812 61.37116622924805 149.9648590087891 61.37263488769531 149.9645690917969 61.37412643432617 C 149.9642944335938 61.37552261352539 149.9639434814453 61.37724685668945 149.9636688232422 61.37864303588867 C 149.9633636474609 61.38013458251953 149.9630737304688 61.38160705566406 149.9627685546875 61.38309478759766 C 149.9624633789062 61.38458633422852 149.9621429443359 61.38619613647461 149.9618377685547 61.3876838684082 C 149.9615020751953 61.3892707824707 149.9612274169922 61.39061737060547 149.9608917236328 61.39220428466797 C 149.9607849121094 61.39272689819336 149.9606323242188 61.39349365234375 149.9605255126953 61.39402008056641 C 149.9602203369141 61.39548110961914 149.9599151611328 61.39692687988281 149.9595947265625 61.39838409423828 C 149.9595794677734 61.39847183227539 149.9595489501953 61.39859390258789 149.9595336914062 61.398681640625 C 149.9592437744141 61.40004348754883 149.9589538574219 61.40142440795898 149.9586639404297 61.40278625488281 C 149.9583587646484 61.4041862487793 149.9579925537109 61.4058952331543 149.9576873779297 61.40729522705078 C 149.9573669433594 61.40878295898438 149.9570617675781 61.41018295288086 149.9567413330078 61.41166687011719 C 149.9564208984375 61.41315460205078 149.9560699462891 61.41472244262695 149.9557495117188 61.41620635986328 C 149.9553985595703 61.41778945922852 149.9550933837891 61.41912078857422 149.9547424316406 61.42070388793945 C 149.9544067382812 61.42218780517578 149.9540557861328 61.42377090454102 149.9537200927734 61.42525482177734 C 149.9533996582031 61.42665100097656 149.9530334472656 61.42823028564453 149.9527130126953 61.42962265014648 C 149.9523620605469 61.43120574951172 149.9519653320312 61.43289184570312 149.9515991210938 61.43447113037109 C 149.9515075683594 61.43490600585938 149.9513854980469 61.4354362487793 149.9512786865234 61.43587112426758 C 149.9506072998047 61.43877792358398 149.9498901367188 61.44178771972656 149.9492034912109 61.44469451904297 C 149.9488525390625 61.44617462158203 149.9485015869141 61.44762802124023 149.9481506347656 61.4491081237793 C 149.9478149414062 61.45048141479492 149.9474334716797 61.45207595825195 149.9470977783203 61.45344924926758 C 149.9467163085938 61.45500946044922 149.9463958740234 61.45637512207031 149.9459991455078 61.45793151855469 C 149.9456481933594 61.45940017700195 149.9452972412109 61.46083831787109 149.9449310302734 61.46230697631836 C 149.9445495605469 61.46386337280273 149.9442291259766 61.46512222290039 149.94384765625 61.4666748046875 C 149.9434814453125 61.46813201904297 149.9430847167969 61.46969604492188 149.9427185058594 61.47115325927734 C 149.9423370361328 61.47262191772461 149.9419097900391 61.47433471679688 149.9415283203125 61.47580337524414 C 149.9413604736328 61.47649765014648 149.9412231445312 61.47703552246094 149.9410400390625 61.47772979736328 C 149.9406890869141 61.47908020019531 149.9403839111328 61.48030853271484 149.9400329589844 61.48165893554688 C 149.9398956298828 61.482177734375 149.9397583007812 61.48271179199219 149.9396209716797 61.48323059082031 C 149.9393463134766 61.48429107666016 149.9390869140625 61.48529434204102 149.9388122558594 61.48635482788086 C 149.9384155273438 61.48783111572266 149.9380035400391 61.48941421508789 149.9376220703125 61.49088668823242 C 149.937255859375 61.49226379394531 149.9368438720703 61.49382019042969 149.9364776611328 61.49519729614258 C 149.9360809326172 61.49665832519531 149.9356842041016 61.49814987182617 149.9352874755859 61.49961090087891 C 149.9348907470703 61.50107574462891 149.9345092773438 61.50251007080078 149.9341125488281 61.50397109985352 C 149.9337005615234 61.50551986694336 149.9333343505859 61.5068359375 149.9329071044922 61.50838088989258 C 149.9325103759766 61.50983428955078 149.93212890625 61.51122283935547 149.9317321777344 61.51267242431641 C 149.9312744140625 61.51431655883789 149.9308471679688 61.51583480834961 149.9303894042969 61.51747894287109 C 149.9302215576172 61.51808166503906 149.9300689697266 61.51863098144531 149.9299011230469 61.51923751831055 C 149.9295043945312 61.52067565917969 149.9290771484375 61.52215957641602 149.9286804199219 61.52359771728516 C 149.9286193847656 61.52377319335938 149.9286193847656 61.52378845214844 149.9285736083984 61.52396011352539 C 149.9281921386719 61.52530288696289 149.9278106689453 61.52666091918945 149.9274291992188 61.52800369262695 C 149.927001953125 61.52947998046875 149.9265899658203 61.53089141845703 149.9261779785156 61.53236770629883 C 149.9257507324219 61.53383255004883 149.9253234863281 61.53530120849609 149.9248962402344 61.53676605224609 C 149.9244689941406 61.53823089599609 149.924072265625 61.53961944580078 149.9236450195312 61.54108428955078 C 149.9232177734375 61.54253768920898 149.9227752685547 61.54403686523438 149.9223480224609 61.54549026489258 C 149.9219055175781 61.54695510864258 149.9214324951172 61.54857635498047 149.9209899902344 61.55004119873047 C 149.9205322265625 61.55160140991211 149.9200592041016 61.55315399169922 149.9196014404297 61.55471420288086 C 149.91943359375 61.55522918701172 149.9193267822266 61.55560684204102 149.9191741943359 61.55612182617188 C 149.9188537597656 61.55717468261719 149.9185180664062 61.55828857421875 149.9181976318359 61.55934143066406 C 149.9180603027344 61.55977249145508 149.9179534912109 61.56015396118164 149.9178161621094 61.56058502197266 C 149.9173889160156 61.56201934814453 149.9169311523438 61.56352233886719 149.9164886474609 61.5649528503418 C 149.9164276123047 61.56512451171875 149.9163970947266 61.56526184082031 149.9163360595703 61.56543350219727 C 149.9159545898438 61.56667327880859 149.9155426025391 61.56802749633789 149.9151611328125 61.56927108764648 C 149.9147338867188 61.57064437866211 149.9141998291016 61.57233047485352 149.9137725830078 61.57370376586914 C 149.9133453369141 61.57506561279297 149.9128875732422 61.57656097412109 149.9124603271484 61.57792282104492 C 149.9119720458984 61.57946014404297 149.9115600585938 61.58078002929688 149.9110717773438 61.58231353759766 C 149.9106140136719 61.58376312255859 149.9101409912109 61.58525848388672 149.90966796875 61.58670806884766 C 149.9092102050781 61.58816528320312 149.9087219238281 61.58969497680664 149.9082489013672 61.59115219116211 C 149.9077758789062 61.59260177612305 149.9073486328125 61.59392547607422 149.9068756103516 61.59537124633789 C 149.9063873291016 61.59690475463867 149.9059448242188 61.5982666015625 149.9054412841797 61.59980010986328 C 149.9052124023438 61.60048294067383 149.9049987792969 61.60117340087891 149.9047698974609 61.60185623168945 C 149.9044189453125 61.6029052734375 149.904052734375 61.60402679443359 149.9037017822266 61.60507202148438 C 149.9031219482422 61.60686874389648 149.9025573730469 61.60854339599609 149.9019622802734 61.61033630371094 C 149.9014892578125 61.61177062988281 149.9010162353516 61.61316680908203 149.9005432128906 61.61460113525391 C 149.9000244140625 61.61611938476562 149.8995819091797 61.6174430847168 149.8990631103516 61.61896133422852 C 149.8985748291016 61.62039566040039 149.8980712890625 61.62191390991211 149.8975830078125 61.62334823608398 C 149.8970489501953 61.62487411499023 149.8966217041016 61.62613296508789 149.8961029052734 61.62766265869141 C 149.8955688476562 61.62918853759766 149.8951568603516 61.63041305541992 149.8946228027344 61.63193893432617 C 149.8941345214844 61.63336944580078 149.8936462402344 61.63476943969727 149.8931427001953 61.63619995117188 C 149.8926391601562 61.63762664794922 149.8921051025391 61.63919448852539 149.8916015625 61.640625 C 149.8911285400391 61.64196014404297 149.8906860351562 61.64319610595703 149.8902282714844 61.64452743530273 C 149.8895568847656 61.64640045166016 149.888916015625 61.64822387695312 149.8882446289062 61.65009307861328 C 149.8878479003906 61.65122604370117 149.8873901367188 61.65250396728516 149.8869781494141 61.65363693237305 C 149.8864898681641 61.65497970581055 149.8859558105469 61.6564826965332 149.8854675292969 61.6578254699707 C 149.8849487304688 61.65924835205078 149.8844299316406 61.66067886352539 149.8839111328125 61.66210556030273 C 149.8833923339844 61.66353225708008 149.8828582763672 61.66501617431641 149.8823394775391 61.66643905639648 C 149.8818206787109 61.66786193847656 149.8812866210938 61.6693000793457 149.8807678222656 61.67072296142578 C 149.8802032470703 61.6722412109375 149.8797149658203 61.67354202270508 149.879150390625 61.67505645751953 C 149.8786315917969 61.67647933959961 149.8780975341797 61.67788696289062 149.8775634765625 61.67930603027344 C 149.8770294189453 61.68074035644531 149.8764953613281 61.68216705322266 149.8759613037109 61.68360137939453 C 149.8756408691406 61.6844482421875 149.8753356933594 61.68523406982422 149.8750152587891 61.68608093261719 C 149.87451171875 61.68743896484375 149.8740081787109 61.68874740600586 149.8735046386719 61.69010162353516 C 149.8729248046875 61.69160461425781 149.8724670410156 61.69281005859375 149.8718872070312 61.69431304931641 C 149.8713073730469 61.69581604003906 149.8708343505859 61.69706726074219 149.8702545166016 61.69857025146484 C 149.8697052001953 61.69998931884766 149.8691864013672 61.70132827758789 149.8686370849609 61.70274353027344 C 149.8680877685547 61.70416259765625 149.8675079345703 61.70566940307617 149.866943359375 61.70708465576172 C 149.8663635253906 61.70859527587891 149.8658752441406 61.70981216430664 149.8652801513672 61.71132278442383 C 149.8646850585938 61.71283340454102 149.8641815185547 61.71413421630859 149.8635864257812 61.71564102172852 C 149.8630218505859 61.71705627441406 149.8624725341797 61.71845245361328 149.8619079589844 61.71986389160156 C 149.8616485595703 61.72052001953125 149.8613739013672 61.7211799621582 149.8611145019531 61.72183609008789 C 149.8598327636719 61.72504043579102 149.8585968017578 61.72813034057617 149.8572998046875 61.73133087158203 C 149.8568420410156 61.73245239257812 149.8562927246094 61.73379898071289 149.8558349609375 61.73492050170898 C 149.855224609375 61.73641586303711 149.8547210693359 61.73766326904297 149.8541107177734 61.73915863037109 C 149.8534851074219 61.74065399169922 149.8529815673828 61.74189376831055 149.8523559570312 61.74338531494141 C 149.8518218994141 61.74470520019531 149.8511657714844 61.74628829956055 149.8506164550781 61.74760437011719 C 149.8500671386719 61.74892044067383 149.8494110107422 61.7504997253418 149.8488616943359 61.75181579589844 C 149.8483123779297 61.75313186645508 149.8475952148438 61.75483322143555 149.8470458984375 61.75614929199219 C 149.8464660644531 61.75753784179688 149.8458251953125 61.75904846191406 149.8452453613281 61.76043701171875 C 149.8450775146484 61.76080703735352 149.8450012207031 61.76101303100586 149.8448333740234 61.76138687133789 C 149.8433380126953 61.76490783691406 149.8418426513672 61.76842880249023 149.84033203125 61.77194213867188 C 149.8398590087891 61.77305221557617 149.8392639160156 61.77441024780273 149.8387908935547 61.77552032470703 C 149.8382263183594 61.77682113647461 149.8376159667969 61.77822494506836 149.8370513916016 61.77952575683594 C 149.8364868164062 61.78083801269531 149.8358764648438 61.7822265625 149.8352966308594 61.78353881835938 C 149.8346557617188 61.7850227355957 149.8340454101562 61.78639221191406 149.8334045410156 61.78787994384766 C 149.8327789306641 61.78927230834961 149.8321685791016 61.79067611694336 149.83154296875 61.79206848144531 C 149.8309326171875 61.79346084594727 149.8302917480469 61.794921875 149.8296661376953 61.79631042480469 C 149.8290405273438 61.79770278930664 149.8284454345703 61.79904556274414 149.8278198242188 61.80043411254883 C 149.8271636962891 61.80191802978516 149.8265991210938 61.80317687988281 149.825927734375 61.80465698242188 C 149.8256378173828 61.80530548095703 149.8253173828125 61.80601501464844 149.8250274658203 61.80666351318359 C 149.8243865966797 61.80807876586914 149.8237609863281 61.80945587158203 149.8231201171875 61.81087112426758 C 149.8224792480469 61.81227493286133 149.8218841552734 61.81360626220703 149.8212280273438 61.81501007080078 C 149.8205871582031 61.81641387939453 149.8199462890625 61.81783676147461 149.8192901611328 61.81924057006836 C 149.8186187744141 61.82072067260742 149.8179779052734 61.82210922241211 149.8172912597656 61.82358551025391 C 149.8166198730469 61.82506561279297 149.8160095214844 61.82635116577148 149.8153228759766 61.82783126831055 C 149.8146514892578 61.82929611206055 149.8140258789062 61.83063125610352 149.8133392333984 61.83209991455078 C 149.8126525878906 61.83356475830078 149.8120574951172 61.83483123779297 149.8113708496094 61.83629608154297 C 149.8107299804688 61.83766937255859 149.81005859375 61.83910751342773 149.8094024658203 61.84048080444336 C 149.8092346191406 61.84085083007812 149.80908203125 61.84116744995117 149.8088989257812 61.84153747558594 C 149.8072967529297 61.84493637084961 149.8056793212891 61.84832382202148 149.8040466308594 61.85171890258789 C 149.8034820556641 61.8529052734375 149.8028564453125 61.85419845581055 149.8022918701172 61.85538482666016 C 149.8016357421875 61.85675430297852 149.8009643554688 61.85812759399414 149.8003082275391 61.8594970703125 C 149.7996826171875 61.86078643798828 149.7989501953125 61.86230087280273 149.7983093261719 61.86358642578125 C 149.7976531982422 61.86495590209961 149.7969360351562 61.86641311645508 149.7962646484375 61.86777877807617 C 149.7955932617188 61.86914825439453 149.7949523925781 61.87046432495117 149.7942810058594 61.87182998657227 C 149.7935638427734 61.873291015625 149.7929382324219 61.87455749511719 149.7922210693359 61.87601470947266 C 149.7915344238281 61.87738037109375 149.7908630371094 61.87876129150391 149.7901763916016 61.880126953125 C 149.7899932861328 61.8804931640625 149.789794921875 61.88089370727539 149.7896118164062 61.88125991821289 C 149.7872772216797 61.88595962524414 149.784912109375 61.89066314697266 149.7825317382812 61.89535140991211 C 149.7823944091797 61.89562606811523 149.7821807861328 61.89603805541992 149.7820434570312 61.89631271362305 C 149.781494140625 61.89738082885742 149.7809600830078 61.89845657348633 149.7804107666016 61.8995246887207 C 149.7802734375 61.89979934692383 149.7801666259766 61.90000915527344 149.7800140380859 61.90028381347656 C 149.7794799804688 61.90135192871094 149.7789611816406 61.90235900878906 149.7784118652344 61.90342712402344 C 149.7777252197266 61.90477752685547 149.7770690917969 61.90606689453125 149.7763671875 61.90741729736328 C 149.7756652832031 61.90876388549805 149.7750091552734 61.91006088256836 149.7743072509766 61.91141128540039 C 149.7735595703125 61.9128532409668 149.7728729248047 61.91416168212891 149.7721252441406 61.91560363769531 C 149.7719879150391 61.91587448120117 149.7718048095703 61.91624069213867 149.7716522216797 61.9165153503418 C 149.7711029052734 61.91757965087891 149.7705383300781 61.91864776611328 149.7699890136719 61.91971206665039 C 149.7699432373047 61.91980361938477 149.7697906494141 61.92009353637695 149.7697448730469 61.92018508911133 C 149.7672119140625 61.92502212524414 149.7646331787109 61.92991638183594 149.7620544433594 61.93474197387695 C 149.7613983154297 61.93599700927734 149.7606658935547 61.93736267089844 149.7599945068359 61.93861389160156 C 149.7593231201172 61.93987655639648 149.7586212158203 61.94116973876953 149.7579498291016 61.94243240356445 C 149.7572174072266 61.94379425048828 149.7564392089844 61.94522857666016 149.7557067871094 61.94658660888672 C 149.7549743652344 61.94794082641602 149.7542114257812 61.94936370849609 149.7534790039062 61.95071411132812 C 149.7527008056641 61.95214462280273 149.7519836425781 61.95347595214844 149.7511901855469 61.95490646362305 C 149.7510528564453 61.95517730712891 149.7509307861328 61.95539093017578 149.7507781982422 61.95566177368164 C 149.7501678466797 61.95680618286133 149.7496337890625 61.95775604248047 149.7490081787109 61.95889663696289 C 149.7488708496094 61.95916748046875 149.7487945556641 61.95929336547852 149.7486572265625 61.95956420898438 C 149.7460174560547 61.96437072753906 149.7433471679688 61.96918106079102 149.7406768798828 61.97397613525391 C 149.739990234375 61.9752197265625 149.7392272949219 61.97658920288086 149.738525390625 61.97783660888672 C 149.7377777099609 61.97917175292969 149.737060546875 61.98043441772461 149.7363128662109 61.98176956176758 C 149.7355651855469 61.98310470581055 149.7347869873047 61.98447799682617 149.7340393066406 61.98581314086914 C 149.7332763671875 61.98714828491211 149.7325134277344 61.98850631713867 149.7317504882812 61.98983764648438 C 149.7310485839844 61.99108123779297 149.7301177978516 61.99271011352539 149.7294006347656 61.99395370483398 C 149.7293090820312 61.99413299560547 149.7291870117188 61.99434280395508 149.7290802001953 61.99452209472656 C 149.7284393310547 61.99565887451172 149.7277679443359 61.99681091308594 149.7271270751953 61.99794387817383 C 149.7270812988281 61.9980354309082 149.7270202636719 61.99811553955078 149.7269744873047 61.99820709228516 C 149.7241363525391 62.00314331054688 149.7213287353516 62.00799942016602 149.7184600830078 62.01292419433594 C 149.7183074951172 62.0131950378418 149.7182006835938 62.01337814331055 149.7180328369141 62.01364517211914 C 149.7174224853516 62.01469421386719 149.7168121337891 62.01574325561523 149.7162017822266 62.01679229736328 C 149.7154693603516 62.01803207397461 149.7146911621094 62.01936340332031 149.7139587402344 62.02059936523438 C 149.7131805419922 62.02192687988281 149.7123413085938 62.02334976196289 149.7115631103516 62.02467346191406 C 149.7107849121094 62.0260009765625 149.7100219726562 62.02728652954102 149.709228515625 62.02861022949219 C 149.70849609375 62.02984619140625 149.7075347900391 62.03145980834961 149.7068023681641 62.03269577026367 C 149.7066955566406 62.03287506103516 149.7064971923828 62.0331916809082 149.7063903808594 62.03337097167969 C 149.7057189941406 62.03449630737305 149.7050933837891 62.03554153442383 149.7044219970703 62.03666687011719 C 149.7043762207031 62.03675842285156 149.7042999267578 62.03688430786133 149.7042388916016 62.03697204589844 C 149.7012939453125 62.0418815612793 149.6983795166016 62.04672241210938 149.6953887939453 62.05162048339844 C 149.6946411132812 62.05284881591797 149.6938781738281 62.05410766601562 149.693115234375 62.05533599853516 C 149.6923217773438 62.05665588378906 149.6915893554688 62.05783843994141 149.6907806396484 62.05915451049805 C 149.6899719238281 62.06047439575195 149.6891632080078 62.06177520751953 149.6883544921875 62.06309127807617 C 149.6875457763672 62.06441879272461 149.6867218017578 62.06574249267578 149.6858978271484 62.06706619262695 C 149.6850280761719 62.06847381591797 149.6842498779297 62.06974029541016 149.6833648681641 62.07114410400391 C 149.6831970214844 62.0714111328125 149.6830139160156 62.07172393798828 149.6828460693359 62.07198715209961 C 149.6790008544922 62.07814788818359 149.6751251220703 62.08431625366211 149.6712188720703 62.0904541015625 C 149.6712188720703 62.0904541015625 149.6711578369141 62.09055709838867 149.6711578369141 62.09055709838867 C 149.6704559326172 62.09167098999023 149.6697692871094 62.09274291992188 149.6690521240234 62.0938606262207 C 149.6688842773438 62.09412384033203 149.6687622070312 62.09433364868164 149.6685791015625 62.09460067749023 C 149.6679229736328 62.09563446044922 149.6673126220703 62.09658432006836 149.6666564941406 62.09761810302734 C 149.6664276123047 62.09797286987305 149.6662750244141 62.09820556640625 149.6660461425781 62.09856033325195 C 149.6653900146484 62.09959411621094 149.6646881103516 62.10067749023438 149.6640319824219 62.10171127319336 C 149.6639099121094 62.10189056396484 149.6637573242188 62.10213470458984 149.6636352539062 62.10231399536133 C 149.6629180908203 62.10342788696289 149.6621856689453 62.10456466674805 149.6614685058594 62.10567855834961 C 149.6613616943359 62.10585403442383 149.6613464355469 62.10587692260742 149.6612243652344 62.10605621337891 C 149.6563415527344 62.11360931396484 149.6514282226562 62.12113189697266 149.6464538574219 62.12865447998047 C 149.6464538574219 62.12865447998047 149.6464385986328 62.12867736816406 149.6464385986328 62.12867736816406 C 149.6456451416016 62.12986373901367 149.6449127197266 62.13098526000977 149.6441192626953 62.13217163085938 C 149.6440582275391 62.13225936889648 149.6438903808594 62.13251113891602 149.6438293457031 62.13259887695312 C 149.6430969238281 62.13370895385742 149.642333984375 62.13486480712891 149.6415863037109 62.13597106933594 C 149.6414642333984 62.13614654541016 149.6413726806641 62.13629531860352 149.6412506103516 62.13647079467773 C 149.6405181884766 62.13757705688477 149.6396789550781 62.13883209228516 149.6389312744141 62.13993835449219 C 149.6388854980469 62.1400260925293 149.6388244628906 62.14011001586914 149.6387634277344 62.14019775390625 C 149.6380310058594 62.14130401611328 149.6371307373047 62.14262771606445 149.6363983154297 62.14373397827148 C 149.6363372802734 62.14382171630859 149.63623046875 62.14398193359375 149.6361694335938 62.14406967163086 C 149.6294250488281 62.15409851074219 149.6225891113281 62.16410827636719 149.6156616210938 62.17407989501953 C 149.6156616210938 62.17407989501953 149.6156616210938 62.17410278320312 149.6156616210938 62.17410278320312 C 149.6060638427734 62.18792343139648 149.5963287353516 62.20166778564453 149.5864105224609 62.21538162231445 C 149.5864105224609 62.21538162231445 149.5863952636719 62.21541595458984 149.5863952636719 62.21541595458984 C 149.5854949951172 62.2166633605957 149.5846710205078 62.21780014038086 149.5837554931641 62.21904754638672 C 149.5836944580078 62.21913146972656 149.5836334228516 62.21921157836914 149.5835723876953 62.21929931640625 C 149.5764617919922 62.22911071777344 149.5691833496094 62.23897552490234 149.5619049072266 62.24872970581055 C 149.561767578125 62.2489013671875 149.5617523193359 62.24893188476562 149.5616149902344 62.24910354614258 C 149.5607452392578 62.25026702880859 149.5598449707031 62.25146484375 149.5589752197266 62.25262451171875 C 149.5589141845703 62.25271224975586 149.5589752197266 62.25262451171875 149.5589141845703 62.25271224975586 C 148.9479522705078 63.06707000732422 147.7533721923828 63.68515396118164 146.30078125 63.90890502929688 C 146.2987060546875 63.90922546386719 146.2966003417969 63.90954971313477 146.2945251464844 63.90986633300781 C 146.2922668457031 63.91021347045898 146.2899322509766 63.91056823730469 146.2876739501953 63.91091537475586 C 146.2855682373047 63.91123199462891 146.2830810546875 63.91161346435547 146.2809753417969 63.91193008422852 C 146.278564453125 63.91229248046875 146.2763671875 63.91262435913086 146.2739715576172 63.91298675537109 C 146.2738189697266 63.91300964355469 146.2739868164062 63.91298675537109 146.2738342285156 63.91300964355469 C 146.2652587890625 63.91429901123047 146.2567443847656 63.91556167602539 146.2481536865234 63.91682052612305 C 146.2461853027344 63.91711044311523 146.2443389892578 63.91738128662109 146.2423553466797 63.91767120361328 C 146.2402038574219 63.91798400878906 146.2377471923828 63.91834259033203 146.2355804443359 63.91865539550781 C 146.2331390380859 63.91901397705078 146.2312469482422 63.91928482055664 146.2287902832031 63.91963958740234 C 146.2264862060547 63.91997146606445 146.2241668701172 63.92030715942383 146.2218475341797 63.92063903808594 C 146.2195434570312 63.92097091674805 146.2172546386719 63.92129516601562 146.2149353027344 63.92162322998047 C 146.2124633789062 63.92197799682617 146.2102813720703 63.92228698730469 146.2078094482422 63.92263793945312 C 146.2020263671875 63.92345428466797 146.1963958740234 63.92424392700195 146.1906127929688 63.925048828125 C 146.1885528564453 63.92533493041992 146.1861114501953 63.9256706237793 146.1840515136719 63.92595672607422 C 146.1815643310547 63.92630004882812 146.1791229248047 63.9266357421875 146.1766204833984 63.92697906494141 C 146.1742858886719 63.92729949951172 146.1719055175781 63.9276237487793 146.1695709228516 63.92794418334961 C 146.1673431396484 63.92824554443359 146.1650238037109 63.92856216430664 146.1628112792969 63.92885971069336 C 146.1602783203125 63.92920303344727 146.1580810546875 63.92950057983398 146.1555480957031 63.92984008789062 C 146.1531677246094 63.93016052246094 146.1508636474609 63.93046951293945 146.1484832763672 63.9307861328125 C 146.1461181640625 63.93110275268555 146.1436462402344 63.93143081665039 146.1412811279297 63.93174362182617 C 146.1390228271484 63.93204116821289 146.1365814208984 63.93236541748047 146.1343231201172 63.93265914916992 C 146.1292419433594 63.93333053588867 146.1241607666016 63.93399047851562 146.1190643310547 63.93465042114258 C 146.1161956787109 63.93502426147461 146.1136932373047 63.93534469604492 146.1108093261719 63.93571472167969 C 146.1083831787109 63.93602752685547 146.1058044433594 63.93635559082031 146.1033782958984 63.93666458129883 C 146.100830078125 63.93699264526367 146.0985107421875 63.93728637695312 146.095947265625 63.93760681152344 C 146.0936889648438 63.93789291381836 146.0909881591797 63.938232421875 146.0887298583984 63.93851852416992 C 146.0861968994141 63.93883514404297 146.0838317871094 63.93913269042969 146.0812835693359 63.93944931030273 C 146.0788879394531 63.93974685668945 146.0766143798828 63.94002914428711 146.0742034912109 63.94032669067383 C 146.0717468261719 63.94062805175781 146.0696868896484 63.94088363647461 146.0672149658203 63.94118499755859 C 146.0596008300781 63.94211959838867 146.0517425537109 63.94306945800781 146.0440979003906 63.9439811706543 C 146.04150390625 63.94429397583008 146.0388488769531 63.94460678100586 146.0362548828125 63.94491577148438 C 146.0338134765625 63.94520568847656 146.0314331054688 63.94548416137695 146.0289916992188 63.94577407836914 C 146.0266876220703 63.946044921875 146.0239410400391 63.94636535644531 146.0216369628906 63.94663238525391 C 146.0191650390625 63.94692230224609 146.0169525146484 63.94717788696289 146.0144805908203 63.94746398925781 C 146.0121307373047 63.94773483276367 146.0097045898438 63.94801712036133 146.0073547363281 63.94828414916992 C 146.0073547363281 63.94828414916992 146.0072021484375 63.94830322265625 146.0072021484375 63.94830322265625 C 145.9921417236328 63.95003128051758 145.9772033691406 63.95169830322266 145.9620971679688 63.95334243774414 C 145.9620971679688 63.95334243774414 145.9618835449219 63.95336532592773 145.9618835449219 63.95336532592773 C 145.9379730224609 63.95596313476562 145.9140625 63.95845031738281 145.8900451660156 63.96083831787109 L 145.7911529541016 62.96574020385742 C 147.7731781005859 62.76876068115234 149 61.7989387512207 149 61.01333999633789 L 149 56.50765991210938 Z M 125.8912200927734 63 L 135.8912200927734 63 L 135.8912200927734 64 C 135.8912200927734 64 125.8912200927734 64 125.8912200927734 64 L 125.8912200927734 63 Z M 105.8912200927734 63 L 115.8912200927734 63 L 115.8912200927734 64 C 115.8912200927734 64 105.8912200927734 64 105.8912200927734 64 L 105.8912200927734 63 Z M 85.89122009277344 63 L 95.89122009277344 63 L 95.89122009277344 64 C 95.89122009277344 64 85.89122009277344 64 85.89122009277344 64 L 85.89122009277344 63 Z M 65.89122009277344 63 L 75.89122009277344 63 L 75.89122009277344 64 C 75.89122009277344 64 65.89122009277344 64 65.89122009277344 64 L 65.89122009277344 63 Z M 45.89122009277344 63 L 55.89122009277344 63 L 55.89122009277344 64 C 55.89122009277344 64 45.89122009277344 64 45.89122009277344 64 L 45.89122009277344 63 Z M 25.89122009277344 63 L 35.89122009277344 63 L 35.89122009277344 64 C 35.89122009277344 64 25.89122009277344 64 25.89122009277344 64 L 25.89122009277344 63 Z M 5.891220092773438 63 L 15.89122009277344 63 L 15.89122009277344 64 C 15.89122009277344 64 5.891220092773438 64 5.891220092773438 64 L 5.891220092773438 63 Z M 0 48.29010009765625 L 1 48.29010009765625 L 1 58.29010009765625 L 0 58.29010009765625 L 0 48.29010009765625 Z M 0 28.29010009765625 L 1 28.29010009765625 L 1 38.29010009765625 L 0 38.29010009765625 L 0 28.29010009765625 Z M 0 8.29010009765625 L 1 8.29010009765625 L 1 18.29010009765625 L 0 18.29010009765625 L 0 8.29010009765625 Z M 4.906539916992188 0 L 4.906539916992188 1 C 4.43194580078125 1 3.967117309570312 1.046558380126953 3.52496337890625 1.138359069824219 L 3.3216552734375 0.15924072265625 C 3.360809326171875 0.1511154174804688 3.400466918945312 0.1432228088378906 3.440048217773438 0.1356849670410156 C 3.442123413085938 0.1352920532226562 3.444320678710938 0.1348724365234375 3.446304321289062 0.1344985961914062 C 3.448638916015625 0.1340560913085938 3.450790405273438 0.1336441040039062 3.453155517578125 0.1332015991210938 C 3.455657958984375 0.1327438354492188 3.457870483398438 0.1323165893554688 3.460311889648438 0.1318588256835938 C 3.4630126953125 0.1313362121582031 3.465744018554688 0.1308403015136719 3.468490600585938 0.1303291320800781 C 3.470672607421875 0.1299247741699219 3.47265625 0.1295509338378906 3.474853515625 0.1291465759277344 C 3.476974487304688 0.1287612915039062 3.479095458984375 0.1283683776855469 3.481201171875 0.1279716491699219 C 3.483352661132812 0.1275749206542969 3.485366821289062 0.127197265625 3.487518310546875 0.1268119812011719 C 3.494720458984375 0.12548828125 3.501968383789062 0.1241683959960938 3.509185791015625 0.12286376953125 C 3.511337280273438 0.1224899291992188 3.51336669921875 0.1221084594726562 3.5155029296875 0.1217308044433594 C 3.515655517578125 0.1217002868652344 3.515762329101562 0.1216812133789062 3.515914916992188 0.1216545104980469 C 3.853851318359375 0.06097412109375 4.206985473632812 0.02184295654296875 4.571014404296875 0.00687408447265625 C 4.579360961914062 0.00649261474609375 4.58782958984375 0.006195068359375 4.596282958984375 0.0058746337890625 C 4.598464965820312 0.00579071044921875 4.600601196289062 0.005710601806640625 4.602752685546875 0.005634307861328125 C 4.60491943359375 0.005558013916015625 4.607284545898438 0.005466461181640625 4.609527587890625 0.005382537841796875 C 4.617233276367188 0.005168914794921875 4.626296997070312 0.004779815673828125 4.634567260742188 0.004512786865234375 C 4.636856079101562 0.00441741943359375 4.638870239257812 0.004367828369140625 4.641159057617188 0.00429534912109375 C 4.643447875976562 0.004222869873046875 4.645767211914062 0.004146575927734375 4.648025512695312 0.0040740966796875 C 4.654190063476562 0.003932952880859375 4.66033935546875 0.003692626953125 4.666351318359375 0.00351715087890625 C 4.668411254882812 0.003459930419921875 4.670516967773438 0.003391265869140625 4.672576904296875 0.003337860107421875 C 4.674911499023438 0.0032806396484375 4.677261352539062 0.003208160400390625 4.679595947265625 0.003139495849609375 C 4.681961059570312 0.003070831298828125 4.684188842773438 0.003009796142578125 4.686614990234375 0.002948760986328125 C 4.69000244140625 0.002849578857421875 4.6929931640625 0.002777099609375 4.696395874023438 0.002689361572265625 C 4.698944091796875 0.002628326416015625 4.701278686523438 0.0025634765625 4.703857421875 0.00250244140625 C 4.706085205078125 0.00244903564453125 4.708755493164062 0.002368927001953125 4.71099853515625 0.002330780029296875 C 4.713485717773438 0.00226593017578125 4.715789794921875 0.00222015380859375 4.718276977539062 0.00215911865234375 C 4.720535278320312 0.002105712890625 4.722946166992188 0.002048492431640625 4.725250244140625 0.002002716064453125 C 4.728546142578125 0.001922607421875 4.731689453125 0.001861572265625 4.7349853515625 0.00179290771484375 C 4.737533569335938 0.001739501953125 4.739913940429688 0.001682281494140625 4.74249267578125 0.00164031982421875 C 4.744918823242188 0.00159454345703125 4.747406005859375 0.001544952392578125 4.749832153320312 0.001495361328125 C 4.752197265625 0.0014495849609375 4.754791259765625 0.001399993896484375 4.757110595703125 0.0013580322265625 C 4.7601318359375 0.0012969970703125 4.763290405273438 0.001247406005859375 4.766326904296875 0.00119781494140625 C 4.7689208984375 0.001148223876953125 4.771469116210938 0.001110076904296875 4.774017333984375 0.001068115234375 C 4.776611328125 0.00102996826171875 4.77911376953125 0.0009918212890625 4.781692504882812 0.000949859619140625 C 4.7840576171875 0.00090789794921875 4.786544799804688 0.000885009765625 4.788909912109375 0.000843048095703125 C 4.791305541992188 0.0008087158203125 4.793807983398438 0.000782012939453125 4.796142578125 0.00074005126953125 C 4.799118041992188 0.000705718994140625 4.801925659179688 0.000682830810546875 4.80487060546875 0.000629425048828125 C 4.807708740234375 0.000591278076171875 4.810546875 0.00055694580078125 4.813369750976562 0.000530242919921875 C 4.815765380859375 0.000507354736328125 4.818252563476562 0.0004730224609375 4.820632934570312 0.00045013427734375 C 4.822982788085938 0.00043487548828125 4.82568359375 0.0004119873046875 4.827957153320312 0.00037384033203125 C 4.830734252929688 0.000347137451171875 4.833175659179688 0.000308990478515625 4.835845947265625 0.00030517578125 C 4.838943481445312 0.000278472900390625 4.842086791992188 0.000247955322265625 4.845199584960938 0.0002288818359375 C 4.847564697265625 0.00020599365234375 4.850021362304688 0.000194549560546875 4.852447509765625 0.000179290771484375 C 4.854949951171875 0.000164031982421875 4.857452392578125 0.000152587890625 4.859893798828125 0.000133514404296875 C 4.86224365234375 0.000118255615234375 4.864730834960938 9.5367431640625e-05 4.867172241210938 9.5367431640625e-05 C 4.870193481445312 8.0108642578125e-05 4.873580932617188 6.4849853515625e-05 4.876541137695312 5.7220458984375e-05 C 4.879074096679688 4.57763671875e-05 4.8818359375 4.1961669921875e-05 4.884384155273438 3.0517578125e-05 C 4.886917114257812 2.288818359375e-05 4.889312744140625 1.1444091796875e-05 4.891845703125 1.52587890625e-05 C 4.89434814453125 1.1444091796875e-05 4.896697998046875 0 4.899154663085938 3.814697265625e-06 C 4.901641845703125 0 4.904052734375 0 4.906539916992188 0 Z" stroke="none" fill="#707070"/>
  </g>
</svg>
