<?xml version="1.0" standalone="yes"?>
<svg xmlns="http://www.w3.org/2000/svg" width="1401" height="365">
<path style="fill:#33254b; stroke:none;" d="M0 0L0 365L1401 365L1401 0L0 0z"/>
<path style="fill:#737382; stroke:none;" d="M984 90L985 91L984 90z"/>
<path style="fill:#c1bcc1; stroke:none;" d="M985 90L985 91L992 91L985 90z"/>
<path style="fill:#737382; stroke:none;" d="M992 90L993 91L992 90M980 91L981 92L980 91z"/>
<path style="fill:#c1bcc1; stroke:none;" d="M981 91L982 92L981 91z"/>
<path style="fill:#fcfaf1; stroke:none;" d="M982 91.5293C955.275 97.7072 968.578 134.995 994 129.481C1022.07 123.394 1008.7 85.3582 982 91.5293z"/>
<path style="fill:#c1bcc1; stroke:none;" d="M995.667 91.3333L996.333 91.6667L995.667 91.3333M978 92L979 93L978 92M998 92L999 93L998 92z"/>
<path style="fill:#737382; stroke:none;" d="M999 92L1000 93L999 92z"/>
<path style="fill:#c1bcc1; stroke:none;" d="M976 93L977 94L976 93M1000 93L1001 94L1000 93z"/>
<path style="fill:#737382; stroke:none;" d="M1001 93L1002 94L1001 93M974 94L975 95L974 94z"/>
<path style="fill:#c1bcc1; stroke:none;" d="M1002 94L1003 95L1002 94z"/>
<path style="fill:#737382; stroke:none;" d="M973 95L974 96L973 95z"/>
<path style="fill:#c1bcc1; stroke:none;" d="M1003 95L1004 96L1003 95M972 96L973 97L972 96M1004 96L1005 97L1004 96M971 97L972 98L971 97M1005 97L1006 98L1005 97z"/>
<path style="fill:#737382; stroke:none;" d="M970 98L971 99L970 98z"/>
<path style="fill:#c1bcc1; stroke:none;" d="M1006 98L1007 99L1006 98z"/>
<path style="fill:#737382; stroke:none;" d="M132 99L132 100L140 100L132 99M1007 99L1008 100L1007 99M123 100L123 101L126 101L123 100z"/>
<path style="fill:#6ac697; stroke:none;" d="M126 100.425C112.603 102.249 99.3394 106.675 88 114.206C15.8169 162.147 58.0883 282.109 145 271.715C157.812 270.182 170.035 265.985 181 259.186C244.144 220.034 227.798 124.294 159 103.025C148.663 99.8298 136.726 98.9651 126 100.425z"/>
<path style="fill:#737382; stroke:none;" d="M146 100L146 101L149 101L146 100z"/>
<path style="fill:#c1bcc1; stroke:none;" d="M969 100L970 101L969 100M1007 100L1008 101L1007 100z"/>
<path style="fill:#737382; stroke:none;" d="M117.667 101.333L118.333 101.667L117.667 101.333M153.667 101.333L154.333 101.667L153.667 101.333M968 101L969 102L968 101z"/>
<path style="fill:#c1bcc1; stroke:none;" d="M1008.33 101.667L1008.67 102.333L1008.33 101.667z"/>
<path style="fill:#737382; stroke:none;" d="M113.667 102.333L114.333 102.667L113.667 102.333M157.667 102.333L158.333 102.667L157.667 102.333z"/>
<path style="fill:#c1bcc1; stroke:none;" d="M968 102L969 103L968 102z"/>
<path style="fill:#737382; stroke:none;" d="M110 103L111 104L110 103M160.667 103.333L161.333 103.667L160.667 103.333M1009 103L1010 104L1009 103M107.667 104.333L108.333 104.667L107.667 104.333M163.667 104.333L164.333 104.667L163.667 104.333M967 104L968 105L967 104z"/>
<path style="fill:#c1bcc1; stroke:none;" d="M1009.33 104.667L1009.67 105.333L1009.33 104.667z"/>
<path style="fill:#737382; stroke:none;" d="M104.667 105.333L105.333 105.667L104.667 105.333M166 105L167 106L166 105z"/>
<path style="fill:#c1bcc1; stroke:none;" d="M967 105L968 106L967 105z"/>
<path style="fill:#737382; stroke:none;" d="M102 106L103 107L102 106M169 106L170 107L169 106M100 107L101 108L100 107M171 107L172 108L171 107M1010 107L1011 108L1010 107M98 108L99 109L98 108M173 108L174 109L173 108z"/>
<path style="fill:#c1bcc1; stroke:none;" d="M1010 108L1010 113L1011 113L1010 108z"/>
<path style="fill:#737382; stroke:none;" d="M96 109L97 110L96 109M175 109L176 110L175 109M342 109L343 110L342 109z"/>
<path style="fill:#c1bcc1; stroke:none;" d="M343 109L343 110L359 110L343 109z"/>
<path style="fill:#737382; stroke:none;" d="M359 109L360 110L359 109M94 110L95 111L94 110M177 110L178 111L177 110M335 110L336 111L335 110z"/>
<path style="fill:#c1bcc1; stroke:none;" d="M336 110L336 111L339 111L336 110z"/>
<path style="fill:#fcfaf1; stroke:none;" d="M339 110.439C328.14 112.135 317.265 115.713 308 121.699C268.36 147.31 262.792 207.613 296.09 240.91C313.269 258.09 339.247 264.975 363 261.572C442.468 250.187 449.594 131.318 371 112.13C360.892 109.662 349.342 108.824 339 110.439z"/>
<path style="fill:#c1bcc1; stroke:none;" d="M363 110L363 111L366 111L363 110z"/>
<path style="fill:#737382; stroke:none;" d="M366 110L367 111L366 110M92 111L93 112L92 111M331 111L332 112L331 111z"/>
<path style="fill:#c1bcc1; stroke:none;" d="M332.667 111.333L333.333 111.667L332.667 111.333M368 111L368 112L371 112L368 111z"/>
<path style="fill:#737382; stroke:none;" d="M90 112L91 113L90 112M180 112L181 113L180 112M327 112L328 113L327 112z"/>
<path style="fill:#c1bcc1; stroke:none;" d="M328.667 112.333L329.333 112.667L328.667 112.333M372.667 112.333L373.333 112.667L372.667 112.333z"/>
<path style="fill:#737382; stroke:none;" d="M374 112L375 113L374 112M182 113L183 114L182 113M324 113L325 114L324 113z"/>
<path style="fill:#c1bcc1; stroke:none;" d="M325 113L326 114L325 113M376 113L377 114L376 113z"/>
<path style="fill:#737382; stroke:none;" d="M377 113L378 114L377 113M1010 113L1011 114L1010 113M87 114L88 115L87 114M321 114L322 115L321 114z"/>
<path style="fill:#c1bcc1; stroke:none;" d="M322 114L323 115L322 114M379 114L380 115L379 114z"/>
<path style="fill:#737382; stroke:none;" d="M380 114L381 115L380 114z"/>
<path style="fill:#c1bcc1; stroke:none;" d="M967.333 114.667L967.667 115.333L967.333 114.667z"/>
<path style="fill:#737382; stroke:none;" d="M86 115L87 116L86 115M185 115L186 116L185 115z"/>
<path style="fill:#c1bcc1; stroke:none;" d="M319.667 115.333L320.333 115.667L319.667 115.333M381.667 115.333L382.333 115.667L381.667 115.333M1009.33 115.667L1009.67 116.333L1009.33 115.667z"/>
<path style="fill:#737382; stroke:none;" d="M186 116L187 117L186 116z"/>
<path style="fill:#c1bcc1; stroke:none;" d="M317 116L318 117L317 116M384 116L385 117L384 116z"/>
<path style="fill:#737382; stroke:none;" d="M967 116L968 117L967 116M83 117L84 118L83 117z"/>
<path style="fill:#c1bcc1; stroke:none;" d="M315 117L316 118L315 117M386 117L387 118L386 117z"/>
<path style="fill:#737382; stroke:none;" d="M1009 117L1010 118L1009 117M189 118L190 119L189 118z"/>
<path style="fill:#c1bcc1; stroke:none;" d="M313 118L314 119L313 118M388 118L389 119L388 118M968 118L969 119L968 118M1008 118L1009 119L1008 118z"/>
<path style="fill:#737382; stroke:none;" d="M190 119L191 120L190 119z"/>
<path style="fill:#c1bcc1; stroke:none;" d="M311 119L312 120L311 119M390 119L391 120L390 119z"/>
<path style="fill:#737382; stroke:none;" d="M1008 119L1009 120L1008 119M191 120L192 121L191 120M309 120L310 121L309 120M392 120L393 121L392 120z"/>
<path style="fill:#c1bcc1; stroke:none;" d="M969 120L970 121L969 120M1007 120L1008 121L1007 120z"/>
<path style="fill:#737382; stroke:none;" d="M192 121L193 122L192 121z"/>
<path style="fill:#c1bcc1; stroke:none;" d="M308 121L309 122L308 121M393 121L394 122L393 121M970 121L971 122L970 121z"/>
<path style="fill:#737382; stroke:none;" d="M1007 121L1008 122L1007 121M77 122L78 123L77 122M306 122L307 123L306 122M395 122L396 123L395 122M970 122L971 123L970 122M1006 122L1007 123L1006 122M76 123L77 124L76 123z"/>
<path style="fill:#c1bcc1; stroke:none;" d="M305 123L306 124L305 123M396 123L397 124L396 123z"/>
<path style="fill:#737382; stroke:none;" d="M971 123L972 124L971 123z"/>
<path style="fill:#c1bcc1; stroke:none;" d="M1005 123L1006 124L1005 123z"/>
<path style="fill:#737382; stroke:none;" d="M75 124L76 125L75 124M303 124L304 125L303 124M398 124L399 125L398 124M972 124L973 125L972 124z"/>
<path style="fill:#c1bcc1; stroke:none;" d="M1004 124L1005 125L1004 124z"/>
<path style="fill:#737382; stroke:none;" d="M74 125L75 126L74 125z"/>
<path style="fill:#c1bcc1; stroke:none;" d="M302 125L303 126L302 125M399 125L400 126L399 125z"/>
<path style="fill:#737382; stroke:none;" d="M973 125L974 126L973 125M1003 125L1004 126L1003 125M73 126L74 127L73 126z"/>
<path style="fill:#c1bcc1; stroke:none;" d="M301 126L302 127L301 126M400 126L401 127L400 126M975 126L976 127L975 126M1001 126L1002 127L1001 126z"/>
<path style="fill:#737382; stroke:none;" d="M1002 126L1003 127L1002 126M72 127L73 128L72 127z"/>
<path style="fill:#c1bcc1; stroke:none;" d="M300 127L301 128L300 127M401 127L402 128L401 127z"/>
<path style="fill:#737382; stroke:none;" d="M976 127L977 128L976 127z"/>
<path style="fill:#c1bcc1; stroke:none;" d="M977 127L978 128L977 127M1000 127L1001 128L1000 127z"/>
<path style="fill:#737382; stroke:none;" d="M199 128L200 129L199 128M298 128L299 129L298 128z"/>
<path style="fill:#c1bcc1; stroke:none;" d="M402 128L403 129L402 128z"/>
<path style="fill:#737382; stroke:none;" d="M403 128L404 129L403 128M978 128L979 129L978 128z"/>
<path style="fill:#c1bcc1; stroke:none;" d="M979 128L980 129L979 128M997.667 128.333L998.333 128.667L997.667 128.333z"/>
<path style="fill:#737382; stroke:none;" d="M200 129L201 130L200 129M297 129L298 130L297 129M404 129L405 130L404 129M981 129L982 130L981 129z"/>
<path style="fill:#c1bcc1; stroke:none;" d="M982.667 129.333L983.333 129.667L982.667 129.333M994.667 129.333L995.333 129.667L994.667 129.333z"/>
<path style="fill:#737382; stroke:none;" d="M201 130L202 131L201 130M296 130L297 131L296 130M405 130L406 131L405 130z"/>
<path style="fill:#c1bcc1; stroke:none;" d="M988 130L989 131L988 130z"/>
<path style="fill:#737382; stroke:none;" d="M989 130L990 131L989 130M202 131L203 132L202 131M295 131L296 132L295 131M406 131L407 132L406 131M68 132L69 133L68 132M294 132L295 133L294 132M407 132L408 133L407 132M203 133L204 134L203 133M293 133L294 134L293 133M408 133L409 134L408 133M204 134L205 135L204 134M292 134L293 135L292 134z"/>
<path style="fill:#c1bcc1; stroke:none;" d="M408 134L409 135L408 134z"/>
<path style="fill:#737382; stroke:none;" d="M66 135L67 136L66 135z"/>
<path style="fill:#c1bcc1; stroke:none;" d="M409 135L410 136L409 135z"/>
<path style="fill:#737382; stroke:none;" d="M65 136L66 137L65 136z"/>
<path style="fill:#c1bcc1; stroke:none;" d="M291 136L292 137L291 136M410 136L411 137L410 136z"/>
<path style="fill:#737382; stroke:none;" d="M206 137L207 138L206 137z"/>
<path style="fill:#c1bcc1; stroke:none;" d="M290 137L291 138L290 137M411 137L412 138L411 137z"/>
<path style="fill:#737382; stroke:none;" d="M207 138L208 139L207 138M289 138L290 139L289 138M412 138L413 139L412 138M63 139L64 140L63 139M288 139L289 140L288 139M208 140L209 141L208 140z"/>
<path style="fill:#c1bcc1; stroke:none;" d="M288 140L289 141L288 140M413 140L414 141L413 140z"/>
<path style="fill:#737382; stroke:none;" d="M577 140L578 141L577 140z"/>
<path style="fill:#c1bcc1; stroke:none;" d="M578 140L578 141L589 141L578 140z"/>
<path style="fill:#737382; stroke:none;" d="M589 140L590 141L589 140z"/>
<path style="fill:#c1bcc1; stroke:none;" d="M722 140L722 141L734 141L722 140z"/>
<path style="fill:#737382; stroke:none;" d="M734 140L735 141L734 140z"/>
<path style="fill:#c1bcc1; stroke:none;" d="M1184 140L1184 141L1198 141L1184 140z"/>
<path style="fill:#737382; stroke:none;" d="M1198 140L1199 141L1198 140M62 141L63 142L62 141z"/>
<path style="fill:#c1bcc1; stroke:none;" d="M287 141L288 142L287 141M414 141L415 142L414 141M512 141L512 142L515 142L512 141z"/>
<path style="fill:#fcfaf1; stroke:none;" d="M485 161L484 161L484 142L459 142C456.09 142 451.052 141.088 448.603 143.028C443.868 146.778 447 167.199 447 173L447 261L484 261L484 211C484 199.899 484.362 189.474 495 183.005C502.47 178.463 512.65 180 521 180L521 141C506.997 141.289 491.68 148.123 485 161z"/>
<path style="fill:#c1bcc1; stroke:none;" d="M521 141L521 179L522 179C522 168.089 525.211 151.036 521 141z"/>
<path style="fill:#737382; stroke:none;" d="M571 141L572 142L571 141z"/>
<path style="fill:#c1bcc1; stroke:none;" d="M572.667 141.333L573.333 141.667L572.667 141.333z"/>
<path style="fill:#fcfaf1; stroke:none;" d="M619 245L620 245C620 251.908 620.613 259.143 619.711 266C617.382 283.698 599.054 293.168 583 285.33C577.524 282.657 574.289 274.811 568.896 273.318C559.283 270.656 545.981 273 536 273C538.177 322.959 618.038 335.564 644.841 298.999C657.651 281.523 656 261.482 656 241L656 142L620 142L620 158C600.189 133.739 561.358 135.736 542.927 161C526.782 183.131 526.783 219.868 542.927 242C558.863 263.845 603.827 274.168 619 245z"/>
<path style="fill:#c1bcc1; stroke:none;" d="M593.667 141.333L594.333 141.667L593.667 141.333z"/>
<path style="fill:#737382; stroke:none;" d="M595 141L596 142L595 141M716 141L717 142L716 141z"/>
<path style="fill:#c1bcc1; stroke:none;" d="M717.667 141.333L718.333 141.667L717.667 141.333z"/>
<path style="fill:#fcfaf1; stroke:none;" d="M765 245L765 261L801 261L801 142L765 142L765 158C756.309 150.482 749.856 143.753 738 141.616C730.995 140.353 722.913 140.455 716 142.131C648.148 158.588 672.292 283.766 744 260.251C752.757 257.379 758.766 251.459 765 245z"/>
<path style="fill:#c1bcc1; stroke:none;" d="M737 141L737 142L740 142L737 141z"/>
<path style="fill:#737382; stroke:none;" d="M889 141L890 142L889 141z"/>
<path style="fill:#c1bcc1; stroke:none;" d="M890 141L890 142L893 142L890 141z"/>
<path style="fill:#fcfaf1; stroke:none;" d="M865 157L864 157L862.972 143.603L853 142L827 142L827 261L864 261L864 206C864 196.674 862.869 186.741 869.39 179.093C880.276 166.329 901.044 171.115 907.069 186C910.298 193.976 909 203.573 909 212L909 261L945 261L945 205C945 189.21 945.608 174.016 937.073 160C923.676 137.998 879.096 131.99 865 157z"/>
<path style="fill:#c1bcc1; stroke:none;" d="M906 141L906 142L909 142L906 141z"/>
<path style="fill:#737382; stroke:none;" d="M909 141L910 142L909 141M1177 141L1178 142L1177 141z"/>
<path style="fill:#c1bcc1; stroke:none;" d="M1178.67 141.333L1179.33 141.667L1178.67 141.333z"/>
<path style="fill:#fcfaf1; stroke:none;" d="M1247 222C1236 222 1221.67 219.531 1211.04 222.318C1205.6 223.742 1202.57 229.953 1197 231.891C1182.04 237.093 1168.67 224.647 1168 210L1250 210C1250.05 190.293 1249.23 170.93 1233.91 156.174C1210.5 133.624 1166.39 135.823 1145.19 160C1135.24 171.338 1132.1 186.372 1131.38 201C1129.66 235.546 1155.07 259.708 1188 262.83C1212.13 265.119 1244.68 248.438 1247 222z"/>
<path style="fill:#c1bcc1; stroke:none;" d="M1202 141L1202 142L1205 142L1202 141z"/>
<path style="fill:#737382; stroke:none;" d="M1205 141L1206 142L1205 141M209 142L210 143L209 142M286 142L287 143L286 142M415 142L416 143L415 142z"/>
<path style="fill:#c1bcc1; stroke:none;" d="M447 142L448 143L447 142z"/>
<path style="fill:#737382; stroke:none;" d="M508 142L509 143L508 142z"/>
<path style="fill:#c1bcc1; stroke:none;" d="M509 142L510 143L509 142M568.667 142.333L569.333 142.667L568.667 142.333M597.667 142.333L598.333 142.667L597.667 142.333M656 142L656 269L657 269L657 180C657 169.104 660.208 152.027 656 142z"/>
<path style="fill:#737382; stroke:none;" d="M712 142L713 143L712 142z"/>
<path style="fill:#c1bcc1; stroke:none;" d="M713.667 142.333L714.333 142.667L713.667 142.333M742 142L743 143L742 142z"/>
<path style="fill:#737382; stroke:none;" d="M743 142L744 143L743 142z"/>
<path style="fill:#c1bcc1; stroke:none;" d="M764 142L763 158C766.444 154.99 765.674 145.989 764 142M863 142L864 143L863 142z"/>
<path style="fill:#737382; stroke:none;" d="M885 142L886 143L885 142z"/>
<path style="fill:#c1bcc1; stroke:none;" d="M886.667 142.333L887.333 142.667L886.667 142.333M912.667 142.333L913.333 142.667L912.667 142.333M970 142L971 143L970 142z"/>
<path style="fill:#fcfaf1; stroke:none;" d="M970 261L1007 261L1007 142L982 142C979.09 142 974.052 141.088 971.603 143.028C966.868 146.778 970 167.199 970 173L970 261M1027 142L1027 172L1075 172L1041.92 213L1027.94 231L1027 261L1119 261L1119 231L1068 231C1082 210.886 1105.96 193.926 1116.82 172C1119.11 167.378 1120.29 147.789 1116.97 143.603C1113.76 139.545 1098.81 142 1094 142L1027 142z"/>
<path style="fill:#c1bcc1; stroke:none;" d="M1117 142L1118 143L1117 142M1173.67 142.333L1174.33 142.667L1173.67 142.333M1207.67 142.333L1208.33 142.667L1207.67 142.333z"/>
<path style="fill:#737382; stroke:none;" d="M1209 142L1210 143L1209 142M61 143L62 144L61 143z"/>
<path style="fill:#c1bcc1; stroke:none;" d="M341 143L341 144L344 144L341 143z"/>
<path style="fill:#737382; stroke:none;" d="M344 143L345 144L344 143z"/>
<path style="fill:#33254b; stroke:none;" d="M345 143.439C295.295 151.263 304.592 236.587 356 228.561C406.631 220.656 397.516 135.173 345 143.439z"/>
<path style="fill:#737382; stroke:none;" d="M357 143L358 144L357 143z"/>
<path style="fill:#c1bcc1; stroke:none;" d="M358 143L358 144L361 144L358 143M415 143L416 144L415 143z"/>
<path style="fill:#737382; stroke:none;" d="M505 143L506 144L505 143z"/>
<path style="fill:#c1bcc1; stroke:none;" d="M506 143L507 144L506 143M565.667 143.333L566.333 143.667L565.667 143.333M600.667 143.333L601.333 143.667L600.667 143.333z"/>
<path style="fill:#737382; stroke:none;" d="M709 143L710 144L709 143z"/>
<path style="fill:#c1bcc1; stroke:none;" d="M710 143L711 144L710 143M745 143L746 144L745 143z"/>
<path style="fill:#737382; stroke:none;" d="M746 143L747 144L746 143M882 143L883 144L882 143z"/>
<path style="fill:#c1bcc1; stroke:none;" d="M883 143L884 144L883 143M915.667 143.333L916.333 143.667L915.667 143.333z"/>
<path style="fill:#737382; stroke:none;" d="M1169 143L1170 144L1169 143z"/>
<path style="fill:#c1bcc1; stroke:none;" d="M1170.67 143.333L1171.33 143.667L1170.67 143.333M1211.67 143.333L1212.33 143.667L1211.67 143.333z"/>
<path style="fill:#737382; stroke:none;" d="M60 144L61 145L60 144z"/>
<path style="fill:#c1bcc1; stroke:none;" d="M285 144L286 145L285 144M337.667 144.333L338.333 144.667L337.667 144.333z"/>
<path style="fill:#737382; stroke:none;" d="M339 144L340 145L339 144M362 144L363 145L362 144z"/>
<path style="fill:#c1bcc1; stroke:none;" d="M363 144L364 145L363 144z"/>
<path style="fill:#737382; stroke:none;" d="M416 144L417 145L416 144z"/>
<path style="fill:#c1bcc1; stroke:none;" d="M503 144L504 145L503 144z"/>
<path style="fill:#737382; stroke:none;" d="M562 144L563 145L562 144z"/>
<path style="fill:#c1bcc1; stroke:none;" d="M563 144L564 145L563 144M603 144L604 145L603 144z"/>
<path style="fill:#737382; stroke:none;" d="M604 144L605 145L604 144z"/>
<path style="fill:#c1bcc1; stroke:none;" d="M707.667 144.333L708.333 144.667L707.667 144.333M747 144L748 145L747 144z"/>
<path style="fill:#737382; stroke:none;" d="M748 144L749 145L748 144z"/>
<path style="fill:#c1bcc1; stroke:none;" d="M880 144L881 145L880 144M918 144L919 145L918 144z"/>
<path style="fill:#737382; stroke:none;" d="M919 144L920 145L919 144M1166 144L1167 145L1166 144z"/>
<path style="fill:#c1bcc1; stroke:none;" d="M1167 144L1168 145L1167 144M1214.67 144.333L1215.33 144.667L1214.67 144.333z"/>
<path style="fill:#737382; stroke:none;" d="M211 145L212 146L211 145M284 145L285 146L284 145z"/>
<path style="fill:#c1bcc1; stroke:none;" d="M335 145L336 146L335 145z"/>
<path style="fill:#737382; stroke:none;" d="M336 145L337 146L336 145M365 145L366 146L365 145z"/>
<path style="fill:#c1bcc1; stroke:none;" d="M366 145L367 146L366 145M501 145L502 146L501 145z"/>
<path style="fill:#737382; stroke:none;" d="M560 145L561 146L560 145z"/>
<path style="fill:#c1bcc1; stroke:none;" d="M561 145L562 146L561 145M605 145L606 146L605 145z"/>
<path style="fill:#737382; stroke:none;" d="M606 145L607 146L606 145z"/>
<path style="fill:#c1bcc1; stroke:none;" d="M705 145L706 146L705 145M750 145L751 146L750 145z"/>
<path style="fill:#737382; stroke:none;" d="M877 145L878 146L877 145z"/>
<path style="fill:#c1bcc1; stroke:none;" d="M878 145L879 146L878 145M920 145L921 146L920 145z"/>
<path style="fill:#737382; stroke:none;" d="M921 145L922 146L921 145M1164 145L1165 146L1164 145z"/>
<path style="fill:#c1bcc1; stroke:none;" d="M1165 145L1166 146L1165 145M1217 145L1218 146L1217 145z"/>
<path style="fill:#737382; stroke:none;" d="M1218 145L1219 146L1218 145M59 146L60 147L59 146z"/>
<path style="fill:#c1bcc1; stroke:none;" d="M284 146L285 147L284 146M333 146L334 147L333 146M368 146L369 147L368 146M417 146L418 147L417 146M499 146L500 147L499 146z"/>
<path style="fill:#737382; stroke:none;" d="M558 146L559 147L558 146z"/>
<path style="fill:#c1bcc1; stroke:none;" d="M559 146L560 147L559 146M607 146L608 147L607 146M703 146L704 147L703 146M751 146L752 147L751 146z"/>
<path style="fill:#737382; stroke:none;" d="M752 146L753 147L752 146z"/>
<path style="fill:#c1bcc1; stroke:none;" d="M876 146L877 147L876 146M922 146L923 147L922 146z"/>
<path style="fill:#737382; stroke:none;" d="M923 146L924 147L923 146z"/>
<path style="fill:#c1bcc1; stroke:none;" d="M1162 146L1163 147L1162 146M1219 146L1220 147L1219 146z"/>
<path style="fill:#737382; stroke:none;" d="M1220 146L1221 147L1220 146M212 147L213 148L212 147M283 147L284 148L283 147z"/>
<path style="fill:#c1bcc1; stroke:none;" d="M331 147L332 148L331 147M370 147L371 148L370 147z"/>
<path style="fill:#737382; stroke:none;" d="M418 147L419 148L418 147M497 147L498 148L497 147z"/>
<path style="fill:#c1bcc1; stroke:none;" d="M498 147L499 148L498 147M557 147L558 148L557 147z"/>
<path style="fill:#737382; stroke:none;" d="M609 147L610 148L609 147M701 147L702 148L701 147z"/>
<path style="fill:#c1bcc1; stroke:none;" d="M702 147L703 148L702 147M753 147L754 148L753 147M874 147L875 148L874 147M924 147L925 148L924 147M1160 147L1161 148L1160 147M1221 147L1222 148L1221 147z"/>
<path style="fill:#737382; stroke:none;" d="M1222 147L1223 148L1222 147z"/>
<path style="fill:#c1bcc1; stroke:none;" d="M329 148L330 149L329 148z"/>
<path style="fill:#737382; stroke:none;" d="M371 148L372 149L371 148z"/>
<path style="fill:#c1bcc1; stroke:none;" d="M372 148L373 149L372 148M418 148L419 149L418 148M496 148L497 149L496 148z"/>
<path style="fill:#737382; stroke:none;" d="M555 148L556 149L555 148z"/>
<path style="fill:#c1bcc1; stroke:none;" d="M610 148L611 149L610 148M700 148L701 149L700 148z"/>
<path style="fill:#737382; stroke:none;" d="M755 148L756 149L755 148M872 148L873 149L872 148z"/>
<path style="fill:#c1bcc1; stroke:none;" d="M873 148L874 149L873 148z"/>
<path style="fill:#737382; stroke:none;" d="M926 148L927 149L926 148M1158 148L1159 149L1158 148z"/>
<path style="fill:#c1bcc1; stroke:none;" d="M1223 148L1224 149L1223 148z"/>
<path style="fill:#737382; stroke:none;" d="M58 149L59 150L58 149z"/>
<path style="fill:#c1bcc1; stroke:none;" d="M282 149L283 150L282 149z"/>
<path style="fill:#737382; stroke:none;" d="M328 149L329 150L328 149M373 149L374 150L373 149M419 149L420 150L419 149M494 149L495 150L494 149z"/>
<path style="fill:#c1bcc1; stroke:none;" d="M495 149L496 150L495 149M554 149L555 150L554 149M611 149L612 150L611 149z"/>
<path style="fill:#737382; stroke:none;" d="M612 149L613 150L612 149M698 149L699 150L698 149z"/>
<path style="fill:#c1bcc1; stroke:none;" d="M756 149L757 150L756 149z"/>
<path style="fill:#737382; stroke:none;" d="M871 149L872 150L871 149z"/>
<path style="fill:#c1bcc1; stroke:none;" d="M927 149L928 150L927 149z"/>
<path style="fill:#737382; stroke:none;" d="M1156 149L1157 150L1156 149z"/>
<path style="fill:#c1bcc1; stroke:none;" d="M1157 149L1158 150L1157 149M1225 149L1226 150L1225 149z"/>
<path style="fill:#737382; stroke:none;" d="M213 150L214 151L213 150z"/>
<path style="fill:#c1bcc1; stroke:none;" d="M326 150L327 151L326 150z"/>
<path style="fill:#737382; stroke:none;" d="M374 150L375 151L374 150z"/>
<path style="fill:#c1bcc1; stroke:none;" d="M375 150L376 151L375 150M419 150L420 151L419 150z"/>
<path style="fill:#737382; stroke:none;" d="M493 150L494 151L493 150M552 150L553 151L552 150z"/>
<path style="fill:#c1bcc1; stroke:none;" d="M553 150L554 151L553 150z"/>
<path style="fill:#737382; stroke:none;" d="M613 150L614 151L613 150z"/>
<path style="fill:#c1bcc1; stroke:none;" d="M697 150L698 151L697 150M757 150L758 151L757 150M870 150L871 151L870 150M928 150L929 151L928 150z"/>
<path style="fill:#737382; stroke:none;" d="M929 150L930 151L929 150M1155 150L1156 151L1155 150z"/>
<path style="fill:#c1bcc1; stroke:none;" d="M1226 150L1227 151L1226 150z"/>
<path style="fill:#737382; stroke:none;" d="M1227 150L1228 151L1227 150M57 151L58 152L57 151z"/>
<path style="fill:#c1bcc1; stroke:none;" d="M281 151L282 152L281 151M325 151L326 152L325 151M376 151L377 152L376 151z"/>
<path style="fill:#737382; stroke:none;" d="M420 151L421 152L420 151M492 151L493 152L492 151M551 151L552 152L551 151M614 151L615 152L614 151z"/>
<path style="fill:#c1bcc1; stroke:none;" d="M696 151L697 152L696 151M758 151L759 152L758 151M869 151L870 152L869 151z"/>
<path style="fill:#737382; stroke:none;" d="M930 151L931 152L930 151z"/>
<path style="fill:#c1bcc1; stroke:none;" d="M1154 151L1155 152L1154 151z"/>
<path style="fill:#737382; stroke:none;" d="M1228 151L1229 152L1228 151M214 152L215 153L214 152M324 152L325 153L324 152z"/>
<path style="fill:#c1bcc1; stroke:none;" d="M377 152L378 153L377 152M420 152L421 153L420 152M491 152L492 153L491 152M550 152L551 153L550 152z"/>
<path style="fill:#737382; stroke:none;" d="M615 152L616 153L615 152M694 152L695 153L694 152z"/>
<path style="fill:#c1bcc1; stroke:none;" d="M695 152L696 153L695 152M759 152L760 153L759 152z"/>
<path style="fill:#737382; stroke:none;" d="M867 152L868 153L867 152z"/>
<path style="fill:#c1bcc1; stroke:none;" d="M868 152L869 153L868 152z"/>
<path style="fill:#737382; stroke:none;" d="M931 152L932 153L931 152M1152 152L1153 153L1152 152z"/>
<path style="fill:#c1bcc1; stroke:none;" d="M1229 152L1230 153L1229 152z"/>
<path style="fill:#737382; stroke:none;" d="M56 153L57 154L56 153M280 153L281 154L280 153M323 153L324 154L323 153z"/>
<path style="fill:#c1bcc1; stroke:none;" d="M378 153L379 154L378 153M490 153L491 154L490 153M549 153L550 154L549 153z"/>
<path style="fill:#737382; stroke:none;" d="M616 153L617 154L616 153M693 153L694 154L693 153z"/>
<path style="fill:#c1bcc1; stroke:none;" d="M760 153L761 154L760 153z"/>
<path style="fill:#737382; stroke:none;" d="M866 153L867 154L866 153M932 153L933 154L932 153M1151 153L1152 154L1151 153z"/>
<path style="fill:#c1bcc1; stroke:none;" d="M1230 153L1231 154L1230 153z"/>
<path style="fill:#737382; stroke:none;" d="M1231 153L1232 154L1231 153M215 154L216 155L215 154z"/>
<path style="fill:#c1bcc1; stroke:none;" d="M280 154L281 155L280 154z"/>
<path style="fill:#737382; stroke:none;" d="M322 154L323 155L322 154z"/>
<path style="fill:#c1bcc1; stroke:none;" d="M379 154L380 155L379 154M421 154L422 155L421 154M489 154L490 155L489 154M548 154L549 155L548 154z"/>
<path style="fill:#737382; stroke:none;" d="M617 154L618 155L617 154M692 154L693 155L692 154z"/>
<path style="fill:#c1bcc1; stroke:none;" d="M761 154L762 155L761 154z"/>
<path style="fill:#737382; stroke:none;" d="M933 154L934 155L933 154z"/>
<path style="fill:#c1bcc1; stroke:none;" d="M1150 154L1151 155L1150 154z"/>
<path style="fill:#737382; stroke:none;" d="M1232 154L1233 155L1232 154M279 155L280 156L279 155z"/>
<path style="fill:#c1bcc1; stroke:none;" d="M321 155L322 156L321 155M380 155L381 156L380 155M488 155L489 156L488 155M547 155L548 156L547 155z"/>
<path style="fill:#737382; stroke:none;" d="M691 155L692 156L691 155z"/>
<path style="fill:#c1bcc1; stroke:none;" d="M762 155L763 156L762 155M865 155L866 156L865 155M1149 155L1150 156L1149 155z"/>
<path style="fill:#737382; stroke:none;" d="M1233 155L1234 156L1233 155M55 156L56 157L55 156z"/>
<path style="fill:#c1bcc1; stroke:none;" d="M279 156L280 157L279 156M320 156L321 157L320 156z"/>
<path style="fill:#737382; stroke:none;" d="M422 156L423 157L422 156M487 156L488 157L487 156z"/>
<path style="fill:#c1bcc1; stroke:none;" d="M546 156L547 157L546 156M618 156L619 157L618 156z"/>
<path style="fill:#737382; stroke:none;" d="M690 156L691 157L690 156M763 156L764 157L763 156z"/>
<path style="fill:#c1bcc1; stroke:none;" d="M864 156L865 157L864 156M934 156L935 157L934 156M1148 156L1149 157L1148 156z"/>
<path style="fill:#737382; stroke:none;" d="M1234 156L1235 157L1234 156M216 157L217 158L216 157M381 157L382 158L381 157z"/>
<path style="fill:#c1bcc1; stroke:none;" d="M422 157L423 158L422 157z"/>
<path style="fill:#737382; stroke:none;" d="M486 157L487 158L486 157M545 157L546 158L545 157z"/>
<path style="fill:#c1bcc1; stroke:none;" d="M619 157L620 158L619 157M690 157L691 158L690 157M935 157L936 158L935 157M1147 157L1148 158L1147 157z"/>
<path style="fill:#737382; stroke:none;" d="M1235 157L1236 158L1235 157M54.3333 158.667L54.6667 159.333L54.3333 158.667M278 158L279 159L278 158M319 158L320 159L319 158z"/>
<path style="fill:#c1bcc1; stroke:none;" d="M382 158L383 159L382 158z"/>
<path style="fill:#737382; stroke:none;" d="M544 158L545 159L544 158z"/>
<path style="fill:#c1bcc1; stroke:none;" d="M689 158L690 159L689 158z"/>
<path style="fill:#737382; stroke:none;" d="M936 158L937 159L936 158z"/>
<path style="fill:#c1bcc1; stroke:none;" d="M1146 158L1147 159L1146 158z"/>
<path style="fill:#737382; stroke:none;" d="M1236 158L1237 159L1236 158z"/>
<path style="fill:#c1bcc1; stroke:none;" d="M278 159L279 160L278 159M318 159L319 160L318 159M383 159L384 160L383 159z"/>
<path style="fill:#737382; stroke:none;" d="M423 159L424 160L423 159z"/>
<path style="fill:#c1bcc1; stroke:none;" d="M485 159L486 160L485 159z"/>
<path style="fill:#737382; stroke:none;" d="M543 159L544 160L543 159z"/>
<path style="fill:#c1bcc1; stroke:none;" d="M688 159L689 160L688 159M1145 159L1146 160L1145 159z"/>
<path style="fill:#737382; stroke:none;" d="M1237 159L1238 160L1237 159M217 160L218 161L217 160M383 160L384 161L383 160z"/>
<path style="fill:#c1bcc1; stroke:none;" d="M423 160L424 161L423 160M484 160L485 161L484 160M543 160L544 161L543 160z"/>
<path style="fill:#737382; stroke:none;" d="M687 160L688 161L687 160z"/>
<path style="fill:#c1bcc1; stroke:none;" d="M937 160L938 161L937 160z"/>
<path style="fill:#737382; stroke:none;" d="M1144 160L1145 161L1144 160z"/>
<path style="fill:#c1bcc1; stroke:none;" d="M1237 160L1238 161L1237 160z"/>
<path style="fill:#737382; stroke:none;" d="M53.3333 161.667L53.6667 162.333L53.3333 161.667M277 161L278 162L277 161z"/>
<path style="fill:#c1bcc1; stroke:none;" d="M317 161L318 162L317 161M384 161L385 162L384 161M542 161L543 162L542 161z"/>
<path style="fill:#737382; stroke:none;" d="M938 161L939 162L938 161M1143 161L1144 162L1143 161z"/>
<path style="fill:#c1bcc1; stroke:none;" d="M1238 161L1239 162L1238 161M277 162L278 163L277 162z"/>
<path style="fill:#737382; stroke:none;" d="M384 162L385 163L384 162M424 162L425 163L424 162M541 162L542 163L541 162z"/>
<path style="fill:#c1bcc1; stroke:none;" d="M686 162L687 163L686 162M938 162L939 163L938 162M1239 162L1240 163L1239 162z"/>
<path style="fill:#737382; stroke:none;" d="M218.333 163.667L218.667 164.333L218.333 163.667z"/>
<path style="fill:#c1bcc1; stroke:none;" d="M316 163L317 164L316 163M385 163L386 164L385 163M424 163L425 164L424 163M685 163L686 164L685 163z"/>
<path style="fill:#737382; stroke:none;" d="M939 163L940 164L939 163z"/>
<path style="fill:#c1bcc1; stroke:none;" d="M1142 163L1143 164L1142 163z"/>
<path style="fill:#737382; stroke:none;" d="M1240 163L1241 164L1240 163M276 164L277 165L276 164M385 164L386 165L385 164z"/>
<path style="fill:#c1bcc1; stroke:none;" d="M540 164L541 165L540 164M939 164L940 165L939 164z"/>
<path style="fill:#737382; stroke:none;" d="M1141 164L1142 165L1141 164z"/>
<path style="fill:#c1bcc1; stroke:none;" d="M1240 164L1241 165L1240 164z"/>
<path style="fill:#737382; stroke:none;" d="M52.3333 165.667L52.6667 166.333L52.3333 165.667z"/>
<path style="fill:#c1bcc1; stroke:none;" d="M276.333 165.667L276.667 166.333L276.333 165.667M315 165L316 166L315 165M386 165L387 166L386 165z"/>
<path style="fill:#737382; stroke:none;" d="M539 165L540 166L539 165z"/>
<path style="fill:#c1bcc1; stroke:none;" d="M684 165L685 166L684 165z"/>
<path style="fill:#737382; stroke:none;" d="M940 165L941 166L940 165z"/>
<path style="fill:#c1bcc1; stroke:none;" d="M1241 165L1242 166L1241 165z"/>
<path style="fill:#737382; stroke:none;" d="M386 166L387 167L386 166z"/>
<path style="fill:#c1bcc1; stroke:none;" d="M425 166L425 169L426 169L425 166M539 166L540 167L539 166z"/>
<path style="fill:#737382; stroke:none;" d="M683 166L684 167L683 166z"/>
<path style="fill:#c1bcc1; stroke:none;" d="M940 166L941 167L940 166M1140 166L1141 167L1140 166z"/>
<path style="fill:#737382; stroke:none;" d="M1242 166L1243 167L1242 166M219.333 167.667L219.667 168.333L219.333 167.667z"/>
<path style="fill:#c1bcc1; stroke:none;" d="M314 167L315 168L314 167z"/>
<path style="fill:#737382; stroke:none;" d="M538 167L539 168L538 167z"/>
<path style="fill:#c1bcc1; stroke:none;" d="M683 167L684 168L683 167z"/>
<path style="fill:#737382; stroke:none;" d="M941 167L942 168L941 167M1139 167L1140 168L1139 167z"/>
<path style="fill:#c1bcc1; stroke:none;" d="M1242 167L1243 168L1242 167z"/>
<path style="fill:#737382; stroke:none;" d="M314 168L315 169L314 168z"/>
<path style="fill:#c1bcc1; stroke:none;" d="M387 168L388 169L387 168M538 168L539 169L538 168z"/>
<path style="fill:#737382; stroke:none;" d="M682 168L683 169L682 168z"/>
<path style="fill:#c1bcc1; stroke:none;" d="M941 168L942 169L941 168M1139 168L1140 169L1139 168z"/>
<path style="fill:#737382; stroke:none;" d="M1243 168L1244 169L1243 168M51 169L51 172L52 172L51 169z"/>
<path style="fill:#c1bcc1; stroke:none;" d="M275 169L275 172L276 172L275 169z"/>
<path style="fill:#737382; stroke:none;" d="M387 169L388 170L387 169M537 169L538 170L537 169z"/>
<path style="fill:#c1bcc1; stroke:none;" d="M682 169L683 170L682 169M1138 169L1139 170L1138 169M1243 169L1244 170L1243 169M313.333 170.667L313.667 171.333L313.333 170.667z"/>
<path style="fill:#737382; stroke:none;" d="M426 170L427 171L426 170z"/>
<path style="fill:#c1bcc1; stroke:none;" d="M537 170L538 171L537 170z"/>
<path style="fill:#737382; stroke:none;" d="M681 170L682 171L681 170M942 170L943 171L942 170z"/>
<path style="fill:#c1bcc1; stroke:none;" d="M1185.67 170.333L1186.33 170.667L1185.67 170.333z"/>
<path style="fill:#737382; stroke:none;" d="M1187 170L1188 171L1187 170z"/>
<path style="fill:#33254b; stroke:none;" d="M1169 190L1213 190C1209.57 164.655 1171.3 163.801 1169 190z"/>
<path style="fill:#737382; stroke:none;" d="M1194 170L1195 171L1194 170z"/>
<path style="fill:#c1bcc1; stroke:none;" d="M1195 170L1195 171L1198 171L1195 170M1244.33 170.667L1244.67 171.333L1244.33 170.667M388.333 171.667L388.667 172.333L388.333 171.667M426 171L426 174L427 174L426 171z"/>
<path style="fill:#737382; stroke:none;" d="M536 171L537 172L536 171z"/>
<path style="fill:#c1bcc1; stroke:none;" d="M681 171L682 172L681 171M886 171L887 172L886 171M942 171L943 172L942 171M1117 171L1118 172L1117 171M1137 171L1138 172L1137 171M1182 171L1183 172L1182 171z"/>
<path style="fill:#737382; stroke:none;" d="M1183 171L1184 172L1183 171z"/>
<path style="fill:#c1bcc1; stroke:none;" d="M1199.67 171.333L1200.33 171.667L1199.67 171.333z"/>
<path style="fill:#737382; stroke:none;" d="M220 172L220 176L221 176L220 172M313 172L314 173L313 172z"/>
<path style="fill:#c1bcc1; stroke:none;" d="M536 172L537 173L536 172M591 172L591 173L597 173L591 172M736 172L736 173L742 173L736 172M879.667 172.333L880.333 172.667L879.667 172.333z"/>
<path style="fill:#737382; stroke:none;" d="M891 172L892 173L891 172z"/>
<path style="fill:#c1bcc1; stroke:none;" d="M892.667 172.333L893.333 172.667L892.667 172.333M1027 172L1027 173L1075 174L1062 172L1027 172z"/>
<path style="fill:#737382; stroke:none;" d="M1180 172L1181 173L1180 172M1201 172L1202 173L1201 172z"/>
<path style="fill:#c1bcc1; stroke:none;" d="M1202 172L1203 173L1202 172z"/>
<path style="fill:#737382; stroke:none;" d="M1245 172L1246 173L1245 172M388 173L389 174L388 173z"/>
<path style="fill:#c1bcc1; stroke:none;" d="M586.667 173.333L587.333 173.667L586.667 173.333z"/>
<path style="fill:#737382; stroke:none;" d="M588 173L589 174L588 173z"/>
<path style="fill:#33254b; stroke:none;" d="M589 173.468C556.39 179.63 565.526 235.84 600 229.671C631.667 224.004 622.722 167.095 589 173.468z"/>
<path style="fill:#737382; stroke:none;" d="M599 173L600 174L599 173z"/>
<path style="fill:#c1bcc1; stroke:none;" d="M600.667 173.333L601.333 173.667L600.667 173.333M680 173L681 174L680 173M731.667 173.333L732.333 173.667L731.667 173.333z"/>
<path style="fill:#33254b; stroke:none;" d="M733 173.529C700.493 180.992 710.747 237.375 745 229.471C776.523 222.196 766.314 165.882 733 173.529z"/>
<path style="fill:#737382; stroke:none;" d="M744 173L745 174L744 173z"/>
<path style="fill:#c1bcc1; stroke:none;" d="M745.667 173.333L746.333 173.667L745.667 173.333M876 173L877 174L876 173z"/>
<path style="fill:#737382; stroke:none;" d="M877 173L878 174L877 173z"/>
<path style="fill:#c1bcc1; stroke:none;" d="M895.667 173.333L896.333 173.667L895.667 173.333z"/>
<path style="fill:#737382; stroke:none;" d="M943 173L944 174L943 173M1116 173L1117 174L1116 173M1136 173L1137 174L1136 173z"/>
<path style="fill:#c1bcc1; stroke:none;" d="M1178 173L1179 174L1178 173z"/>
<path style="fill:#737382; stroke:none;" d="M1203 173L1204 174L1203 173z"/>
<path style="fill:#c1bcc1; stroke:none;" d="M1245 173L1246 174L1245 173z"/>
<path style="fill:#737382; stroke:none;" d="M274 174L275 175L274 174z"/>
<path style="fill:#c1bcc1; stroke:none;" d="M312 174L312 178L313 178L312 174M535.333 174.667L535.667 175.333L535.333 174.667M584 174L585 175L584 174M603.667 174.333L604.333 174.667L603.667 174.333M728 174L729 175L728 174z"/>
<path style="fill:#737382; stroke:none;" d="M729 174L730 175L729 174M747 174L748 175L747 174z"/>
<path style="fill:#c1bcc1; stroke:none;" d="M748 174L749 175L748 174M874 174L875 175L874 174z"/>
<path style="fill:#737382; stroke:none;" d="M875 174L876 175L875 174M897 174L898 175L897 174z"/>
<path style="fill:#c1bcc1; stroke:none;" d="M943.333 174.667L943.667 175.333L943.333 174.667z"/>
<path style="fill:#737382; stroke:none;" d="M1073 174L1074 175L1073 174M1115 174L1116 175L1115 174z"/>
<path style="fill:#c1bcc1; stroke:none;" d="M1136 174L1137 175L1136 174M1176 174L1177 175L1176 174z"/>
<path style="fill:#737382; stroke:none;" d="M1177 174L1178 175L1177 174z"/>
<path style="fill:#c1bcc1; stroke:none;" d="M1205 174L1206 175L1205 174z"/>
<path style="fill:#737382; stroke:none;" d="M1246 174L1247 175L1246 174z"/>
<path style="fill:#c1bcc1; stroke:none;" d="M274 175L274 180L275 180L274 175M389 175L389 179L390 179L389 175M582 175L583 176L582 175z"/>
<path style="fill:#737382; stroke:none;" d="M605 175L606 176L605 175z"/>
<path style="fill:#c1bcc1; stroke:none;" d="M606 175L607 176L606 175z"/>
<path style="fill:#737382; stroke:none;" d="M679 175L680 176L679 175z"/>
<path style="fill:#c1bcc1; stroke:none;" d="M726 175L727 176L726 175z"/>
<path style="fill:#737382; stroke:none;" d="M727 175L728 176L727 175z"/>
<path style="fill:#c1bcc1; stroke:none;" d="M750 175L751 176L750 175z"/>
<path style="fill:#737382; stroke:none;" d="M873 175L874 176L873 175z"/>
<path style="fill:#c1bcc1; stroke:none;" d="M899 175L900 176L899 175z"/>
<path style="fill:#737382; stroke:none;" d="M1072 175L1073 176L1072 175z"/>
<path style="fill:#c1bcc1; stroke:none;" d="M1114 175L1115 176L1114 175z"/>
<path style="fill:#737382; stroke:none;" d="M1135 175L1136 176L1135 175z"/>
<path style="fill:#c1bcc1; stroke:none;" d="M1175 175L1176 176L1175 175z"/>
<path style="fill:#737382; stroke:none;" d="M1206 175L1207 176L1206 175z"/>
<path style="fill:#c1bcc1; stroke:none;" d="M1246 175L1247 176L1246 175z"/>
<path style="fill:#737382; stroke:none;" d="M50 176L50 184L51 184L50 176z"/>
<path style="fill:#c1bcc1; stroke:none;" d="M580 176L581 177L580 176M607 176L608 177L607 176M679 176L680 177L679 176z"/>
<path style="fill:#737382; stroke:none;" d="M725 176L726 177L725 176M751 176L752 177L751 176z"/>
<path style="fill:#c1bcc1; stroke:none;" d="M752 176L753 177L752 176M871 176L872 177L871 176z"/>
<path style="fill:#737382; stroke:none;" d="M900 176L901 177L900 176z"/>
<path style="fill:#c1bcc1; stroke:none;" d="M1113 176L1114 177L1113 176M1135 176L1136 177L1135 176M1174 176L1175 177L1174 176z"/>
<path style="fill:#737382; stroke:none;" d="M1207 176L1208 177L1207 176z"/>
<path style="fill:#c1bcc1; stroke:none;" d="M534.333 177.667L534.667 178.333L534.333 177.667z"/>
<path style="fill:#737382; stroke:none;" d="M579 177L580 178L579 177M608 177L609 178L608 177z"/>
<path style="fill:#c1bcc1; stroke:none;" d="M609 177L610 178L609 177M723 177L724 178L723 177M753 177L754 178L753 177M870 177L871 178L870 177z"/>
<path style="fill:#737382; stroke:none;" d="M901 177L902 178L901 177z"/>
<path style="fill:#c1bcc1; stroke:none;" d="M1071 177L1072 178L1071 177M1112 177L1113 178L1112 177M1173 177L1174 178L1173 177M1208 177L1209 178L1208 177z"/>
<path style="fill:#737382; stroke:none;" d="M1247 177L1248 178L1247 177z"/>
<path style="fill:#c1bcc1; stroke:none;" d="M427 178L427 193L428 193L427 178M577 178L578 179L577 178z"/>
<path style="fill:#737382; stroke:none;" d="M578 178L579 179L578 178z"/>
<path style="fill:#c1bcc1; stroke:none;" d="M610 178L611 179L610 178z"/>
<path style="fill:#737382; stroke:none;" d="M678 178L679 179L678 178z"/>
<path style="fill:#c1bcc1; stroke:none;" d="M722 178L723 179L722 178z"/>
<path style="fill:#737382; stroke:none;" d="M754 178L755 179L754 178z"/>
<path style="fill:#c1bcc1; stroke:none;" d="M869 178L870 179L869 178z"/>
<path style="fill:#737382; stroke:none;" d="M902 178L903 179L902 178M944 178L945 179L944 178z"/>
<path style="fill:#c1bcc1; stroke:none;" d="M1070 178L1071 179L1070 178M1111 178L1112 179L1111 178z"/>
<path style="fill:#737382; stroke:none;" d="M1134 178L1135 179L1134 178z"/>
<path style="fill:#c1bcc1; stroke:none;" d="M1209 178L1210 179L1209 178M1247 178L1248 179L1247 178z"/>
<path style="fill:#737382; stroke:none;" d="M389 179L390 180L389 179M521 179L522 180L521 179z"/>
<path style="fill:#c1bcc1; stroke:none;" d="M576 179L577 180L576 179M611 179L612 180L611 179M678.333 179.667L678.667 180.333L678.333 179.667z"/>
<path style="fill:#737382; stroke:none;" d="M721 179L722 180L721 179M755 179L756 180L755 179z"/>
<path style="fill:#c1bcc1; stroke:none;" d="M868 179L869 180L868 179z"/>
<path style="fill:#737382; stroke:none;" d="M903 179L904 180L903 179z"/>
<path style="fill:#c1bcc1; stroke:none;" d="M944 179L944 182L945 182L944 179z"/>
<path style="fill:#737382; stroke:none;" d="M1069 179L1070 180L1069 179M1111 179L1112 180L1111 179z"/>
<path style="fill:#c1bcc1; stroke:none;" d="M1134.33 179.667L1134.67 180.333L1134.33 179.667z"/>
<path style="fill:#737382; stroke:none;" d="M1172 179L1173 180L1172 179z"/>
<path style="fill:#c1bcc1; stroke:none;" d="M501 180L501 181L504 181L501 180z"/>
<path style="fill:#737382; stroke:none;" d="M533 180L534 181L533 180z"/>
<path style="fill:#c1bcc1; stroke:none;" d="M575 180L576 181L575 180M612 180L613 181L612 180z"/>
<path style="fill:#737382; stroke:none;" d="M720 180L721 181L720 180M756 180L757 181L756 180M868 180L869 181L868 180z"/>
<path style="fill:#c1bcc1; stroke:none;" d="M904 180L905 181L904 180z"/>
<path style="fill:#737382; stroke:none;" d="M1068 180L1069 181L1068 180M1110 180L1111 181L1110 180z"/>
<path style="fill:#c1bcc1; stroke:none;" d="M1171 180L1172 181L1171 180M1210 180L1211 181L1210 180z"/>
<path style="fill:#737382; stroke:none;" d="M1248 180L1249 181L1248 180z"/>
<path style="fill:#c1bcc1; stroke:none;" d="M497.667 181.333L498.333 181.667L497.667 181.333M533 181L534 182L533 181z"/>
<path style="fill:#737382; stroke:none;" d="M575 181L576 182L575 181z"/>
<path style="fill:#c1bcc1; stroke:none;" d="M613 181L614 182L613 181M719 181L720 182L719 181z"/>
<path style="fill:#737382; stroke:none;" d="M757 181L758 182L757 181z"/>
<path style="fill:#c1bcc1; stroke:none;" d="M867 181L868 182L867 181z"/>
<path style="fill:#737382; stroke:none;" d="M1067 181L1068 182L1067 181M1109 181L1110 182L1109 181M1133 181L1134 182L1133 181z"/>
<path style="fill:#c1bcc1; stroke:none;" d="M1211.33 181.667L1211.67 182.333L1211.33 181.667M1248.33 181.667L1248.67 182.333L1248.33 181.667M495 182L496 183L495 182z"/>
<path style="fill:#737382; stroke:none;" d="M496 182L497 183L496 182M574 182L575 183L574 182z"/>
<path style="fill:#c1bcc1; stroke:none;" d="M677 182L677 185L678 185L677 182M718 182L719 183L718 182M758 182L759 183L758 182M905 182L906 183L905 182M1067 182L1068 183L1067 182M1108 182L1109 183L1108 182M1133.33 182.667L1133.67 183.333L1133.33 182.667M1170 182L1171 183L1170 182z"/>
<path style="fill:#737382; stroke:none;" d="M221 183L221 189L222 189L221 183z"/>
<path style="fill:#c1bcc1; stroke:none;" d="M493 183L494 184L493 183z"/>
<path style="fill:#737382; stroke:none;" d="M494 183L495 184L494 183z"/>
<path style="fill:#c1bcc1; stroke:none;" d="M573 183L574 184L573 183z"/>
<path style="fill:#737382; stroke:none;" d="M614 183L615 184L614 183z"/>
<path style="fill:#c1bcc1; stroke:none;" d="M759 183L760 184L759 183M866 183L867 184L866 183M1066 183L1067 184L1066 183M1107 183L1108 184L1107 183M311 184L311 188L312 188L311 184z"/>
<path style="fill:#737382; stroke:none;" d="M492 184L493 185L492 184M532 184L533 185L532 184z"/>
<path style="fill:#c1bcc1; stroke:none;" d="M615 184L616 185L615 184M717 184L718 185L717 184z"/>
<path style="fill:#737382; stroke:none;" d="M759 184L760 185L759 184z"/>
<path style="fill:#c1bcc1; stroke:none;" d="M906 184L907 185L906 184M1065 184L1066 185L1065 184M1106 184L1107 185L1106 184M1169 184L1170 185L1169 184M1212.33 184.667L1212.67 185.333L1212.33 184.667z"/>
<path style="fill:#737382; stroke:none;" d="M1249 184L1250 185L1249 184M491 185L492 186L491 185z"/>
<path style="fill:#c1bcc1; stroke:none;" d="M532.333 185.667L532.667 186.333L532.333 185.667z"/>
<path style="fill:#737382; stroke:none;" d="M572 185L573 186L572 185z"/>
<path style="fill:#c1bcc1; stroke:none;" d="M716 185L717 186L716 185M760 185L761 186L760 185M865 185L866 186L865 185z"/>
<path style="fill:#737382; stroke:none;" d="M1064 185L1065 186L1064 185M1106 185L1107 186L1106 185M1169 185L1170 186L1169 185z"/>
<path style="fill:#c1bcc1; stroke:none;" d="M1249 185L1249 188L1250 188L1249 185z"/>
<path style="fill:#737382; stroke:none;" d="M490 186L491 187L490 186z"/>
<path style="fill:#c1bcc1; stroke:none;" d="M571 186L572 187L571 186M616 186L617 187L616 186z"/>
<path style="fill:#737382; stroke:none;" d="M676 186L677 187L676 186M716 186L717 187L716 186M865 186L866 187L865 186z"/>
<path style="fill:#c1bcc1; stroke:none;" d="M907.333 186.667L907.667 187.333L907.333 186.667z"/>
<path style="fill:#737382; stroke:none;" d="M945 186L946 187L945 186M1063 186L1064 187L1063 186M1105 186L1106 187L1105 186z"/>
<path style="fill:#c1bcc1; stroke:none;" d="M1132 186L1132 189L1133 189L1132 186z"/>
<path style="fill:#737382; stroke:none;" d="M1212 186L1213 187L1212 186M489 187L490 188L489 187M571 187L572 188L571 187z"/>
<path style="fill:#c1bcc1; stroke:none;" d="M676 187L676 190L677 190L676 187M715 187L716 188L715 187M761 187L762 188L761 187M945 187L945 261L946 261L946 210L945 187z"/>
<path style="fill:#737382; stroke:none;" d="M1062 187L1063 188L1062 187M1104 187L1105 188L1104 187z"/>
<path style="fill:#c1bcc1; stroke:none;" d="M1168.33 187.667L1168.67 188.333L1168.33 187.667z"/>
<path style="fill:#737382; stroke:none;" d="M488 188L489 189L488 188z"/>
<path style="fill:#c1bcc1; stroke:none;" d="M570.333 188.667L570.667 189.333L570.333 188.667M617 188L618 189L617 188z"/>
<path style="fill:#737382; stroke:none;" d="M715 188L716 189L715 188M761 188L762 189L761 188z"/>
<path style="fill:#c1bcc1; stroke:none;" d="M864.333 188.667L864.667 189.333L864.333 188.667M1062 188L1063 189L1062 188M1103 188L1104 189L1103 188z"/>
<path style="fill:#737382; stroke:none;" d="M50 189L50 195L51 195L50 189z"/>
<path style="fill:#c1bcc1; stroke:none;" d="M487 189L488 190L487 189z"/>
<path style="fill:#737382; stroke:none;" d="M531 189L532 190L531 189M617 189L618 190L617 189z"/>
<path style="fill:#c1bcc1; stroke:none;" d="M762.333 189.667L762.667 190.333L762.333 189.667M1061 189L1062 190L1061 189M1102 189L1103 190L1102 189z"/>
<path style="fill:#737382; stroke:none;" d="M1168 189L1169 190L1168 189M487 190L488 191L487 190z"/>
<path style="fill:#c1bcc1; stroke:none;" d="M531 190L531 195L532 195L531 190M714 190L715 191L714 190z"/>
<path style="fill:#737382; stroke:none;" d="M864 190L865 191L864 190z"/>
<path style="fill:#c1bcc1; stroke:none;" d="M908 190L908 195L909 195L908 190M1060 190L1061 191L1060 190M1101 190L1102 191L1101 190z"/>
<path style="fill:#737382; stroke:none;" d="M1250 190L1251 191L1250 190z"/>
<path style="fill:#c1bcc1; stroke:none;" d="M486 191L487 192L486 191M569.333 191.667L569.667 192.333L569.333 191.667M618 191L619 192L618 191z"/>
<path style="fill:#737382; stroke:none;" d="M714 191L715 192L714 191M1059 191L1060 192L1059 191z"/>
<path style="fill:#c1bcc1; stroke:none;" d="M1250 191L1250 199L1251 199L1250 191M274 192L274 197L275 197L274 192z"/>
<path style="fill:#737382; stroke:none;" d="M389 192L390 193L389 192M486 192L487 193L486 192M618 192L619 193L618 192z"/>
<path style="fill:#c1bcc1; stroke:none;" d="M763 192L763 195L764 195L763 192z"/>
<path style="fill:#737382; stroke:none;" d="M1058 192L1059 193L1058 192M1100 192L1101 193L1100 192M1131 192L1132 193L1131 192M312 193L313 194L312 193z"/>
<path style="fill:#c1bcc1; stroke:none;" d="M389 193L389 196L390 196L389 193z"/>
<path style="fill:#737382; stroke:none;" d="M427 193L428 194L427 193z"/>
<path style="fill:#c1bcc1; stroke:none;" d="M485.333 193.667L485.667 194.333L485.333 193.667z"/>
<path style="fill:#737382; stroke:none;" d="M569 193L570 194L569 193z"/>
<path style="fill:#c1bcc1; stroke:none;" d="M713 193L713 197L714 197L713 193z"/>
<path style="fill:#737382; stroke:none;" d="M1099 193L1100 194L1099 193z"/>
<path style="fill:#c1bcc1; stroke:none;" d="M1131 193L1131 200L1132 200L1131 193M312 194L312 197L313 197L312 194z"/>
<path style="fill:#737382; stroke:none;" d="M675 194L676 195L675 194z"/>
<path style="fill:#c1bcc1; stroke:none;" d="M1057 194L1058 195L1057 194M1098 194L1099 195L1098 194z"/>
<path style="fill:#737382; stroke:none;" d="M485 195L486 196L485 195z"/>
<path style="fill:#c1bcc1; stroke:none;" d="M619 195L619 199L620 199L619 195M675 195L675 208L676 208L675 195z"/>
<path style="fill:#737382; stroke:none;" d="M908 195L909 196L908 195z"/>
<path style="fill:#c1bcc1; stroke:none;" d="M1056 195L1057 196L1056 195M1097 195L1098 196L1097 195z"/>
<path style="fill:#737382; stroke:none;" d="M220 196L220 199L221 199L220 196z"/>
<path style="fill:#c1bcc1; stroke:none;" d="M1055 196L1056 197L1055 196M1096 196L1097 197L1096 196M484 197L484 201L485 201L484 197M568 197L568 206L569 206L568 197z"/>
<path style="fill:#737382; stroke:none;" d="M1054 197L1055 198L1054 197z"/>
<path style="fill:#c1bcc1; stroke:none;" d="M1095 197L1096 198L1095 197z"/>
<path style="fill:#737382; stroke:none;" d="M388 198L389 199L388 198z"/>
<path style="fill:#c1bcc1; stroke:none;" d="M426 198L426 201L427 201L426 198z"/>
<path style="fill:#737382; stroke:none;" d="M1053 198L1054 199L1053 198M1095 198L1096 199L1095 198M51 199L51 202L52 202L51 199M313 199L314 200L313 199z"/>
<path style="fill:#c1bcc1; stroke:none;" d="M388.333 199.667L388.667 200.333L388.333 199.667z"/>
<path style="fill:#737382; stroke:none;" d="M619 199L620 200L619 199z"/>
<path style="fill:#c1bcc1; stroke:none;" d="M764 199L764 204L765 204L764 199z"/>
<path style="fill:#737382; stroke:none;" d="M1094 199L1095 200L1094 199z"/>
<path style="fill:#c1bcc1; stroke:none;" d="M275 200L275 203L276 203L275 200M313.333 200.667L313.667 201.333L313.333 200.667M1052 200L1053 201L1052 200z"/>
<path style="fill:#737382; stroke:none;" d="M1093 200L1094 201L1093 200M426 201L427 202L426 201M484 201L485 202L484 201z"/>
<path style="fill:#c1bcc1; stroke:none;" d="M1051 201L1052 202L1051 201M1092 201L1093 202L1092 201M1250 201L1250 209L1251 209L1250 201z"/>
<path style="fill:#737382; stroke:none;" d="M314 202L315 203L314 202M387 202L388 203L387 202M1050 202L1051 203L1050 202z"/>
<path style="fill:#c1bcc1; stroke:none;" d="M1091 202L1092 203L1091 202z"/>
<path style="fill:#737382; stroke:none;" d="M219.333 203.667L219.667 204.333L219.333 203.667z"/>
<path style="fill:#c1bcc1; stroke:none;" d="M314.333 203.667L314.667 204.333L314.333 203.667M387 203L388 204L387 203M425 203L425 206L426 206L425 203z"/>
<path style="fill:#737382; stroke:none;" d="M619 203L620 204L619 203M1049 203L1050 204L1049 203z"/>
<path style="fill:#c1bcc1; stroke:none;" d="M1090 203L1091 204L1090 203M619 204L619 209L620 209L619 204z"/>
<path style="fill:#737382; stroke:none;" d="M1048 204L1049 205L1048 204z"/>
<path style="fill:#c1bcc1; stroke:none;" d="M1131 204L1131 211L1132 211L1131 204z"/>
<path style="fill:#737382; stroke:none;" d="M52.3333 205.667L52.6667 206.333L52.3333 205.667z"/>
<path style="fill:#c1bcc1; stroke:none;" d="M276.333 205.667L276.667 206.333L276.333 205.667z"/>
<path style="fill:#737382; stroke:none;" d="M315 205L316 206L315 205z"/>
<path style="fill:#c1bcc1; stroke:none;" d="M386.333 205.667L386.667 206.333L386.333 205.667M1048 205L1049 206L1048 205z"/>
<path style="fill:#737382; stroke:none;" d="M1089 205L1090 206L1089 205z"/>
<path style="fill:#c1bcc1; stroke:none;" d="M315 206L316 207L315 206M713 206L713 210L714 210L713 206M1047 206L1048 207L1047 206z"/>
<path style="fill:#737382; stroke:none;" d="M1088 206L1089 207L1088 206M218.333 207.667L218.667 208.333L218.333 207.667M276 207L277 208L276 207M385 207L386 208L385 207z"/>
<path style="fill:#c1bcc1; stroke:none;" d="M424.333 207.667L424.667 208.333L424.333 207.667M1046 207L1047 208L1046 207M1087 207L1088 208L1087 207M316 208L317 209L316 208M385 208L386 209L385 208M531 208L531 213L532 213L531 208z"/>
<path style="fill:#737382; stroke:none;" d="M675 208L676 209L675 208M763 208L764 209L763 208M1045 208L1046 209L1045 208z"/>
<path style="fill:#c1bcc1; stroke:none;" d="M1086 208L1087 209L1086 208z"/>
<path style="fill:#737382; stroke:none;" d="M53.3333 209.667L53.6667 210.333L53.3333 209.667z"/>
<path style="fill:#c1bcc1; stroke:none;" d="M277 209L278 210L277 209z"/>
<path style="fill:#737382; stroke:none;" d="M384 209L385 210L384 209M424 209L425 210L424 209M569 209L570 210L569 209z"/>
<path style="fill:#c1bcc1; stroke:none;" d="M763.333 209.667L763.667 210.333L763.333 209.667z"/>
<path style="fill:#737382; stroke:none;" d="M1044 209L1045 210L1044 209z"/>
<path style="fill:#c1bcc1; stroke:none;" d="M1085 209L1086 210L1085 209z"/>
<path style="fill:#737382; stroke:none;" d="M1250 209L1251 210L1250 209M277 210L278 211L277 210z"/>
<path style="fill:#c1bcc1; stroke:none;" d="M317 210L318 211L317 210M384 210L385 211L384 210M569.333 210.667L569.667 211.333L569.333 210.667z"/>
<path style="fill:#737382; stroke:none;" d="M618 210L619 211L618 210M1043 210L1044 211L1043 210z"/>
<path style="fill:#c1bcc1; stroke:none;" d="M1168 210L1168 211L1250 211L1225 210L1168 210z"/>
<path style="fill:#737382; stroke:none;" d="M217 211L218 212L217 211M318 211L319 212L318 211z"/>
<path style="fill:#c1bcc1; stroke:none;" d="M383 211L384 212L383 211M423 211L424 212L423 211M618.333 211.667L618.667 212.333L618.333 211.667z"/>
<path style="fill:#737382; stroke:none;" d="M714 211L715 212L714 211z"/>
<path style="fill:#c1bcc1; stroke:none;" d="M1043 211L1044 212L1043 211z"/>
<path style="fill:#737382; stroke:none;" d="M1084 211L1085 212L1084 211M54.3333 212.667L54.6667 213.333L54.3333 212.667z"/>
<path style="fill:#c1bcc1; stroke:none;" d="M278 212L279 213L278 212M318 212L319 213L318 212z"/>
<path style="fill:#737382; stroke:none;" d="M423 212L424 213L423 212z"/>
<path style="fill:#c1bcc1; stroke:none;" d="M714 212L715 213L714 212z"/>
<path style="fill:#737382; stroke:none;" d="M762 212L763 213L762 212z"/>
<path style="fill:#c1bcc1; stroke:none;" d="M1042 212L1043 213L1042 212z"/>
<path style="fill:#737382; stroke:none;" d="M1083 212L1084 213L1083 212M278 213L279 214L278 213z"/>
<path style="fill:#c1bcc1; stroke:none;" d="M319 213L320 214L319 213M382 213L383 214L382 213z"/>
<path style="fill:#737382; stroke:none;" d="M531 213L532 214L531 213z"/>
<path style="fill:#c1bcc1; stroke:none;" d="M570.333 213.667L570.667 214.333L570.333 213.667M676 213L676 216L677 216L676 213M762 213L763 214L762 213M1041 213L1042 214L1041 213z"/>
<path style="fill:#737382; stroke:none;" d="M1082 213L1083 214L1082 213M1168 213L1169 214L1168 213M216 214L217 215L216 214M320 214L321 215L320 214M381 214L382 215L381 214z"/>
<path style="fill:#c1bcc1; stroke:none;" d="M422 214L423 215L422 214M617 214L618 215L617 214z"/>
<path style="fill:#737382; stroke:none;" d="M715 214L716 215L715 214M1040 214L1041 215L1040 214z"/>
<path style="fill:#c1bcc1; stroke:none;" d="M1081 214L1082 215L1081 214M1132 214L1132 217L1133 217L1132 214M1168.33 214.667L1168.67 215.333L1168.33 214.667z"/>
<path style="fill:#737382; stroke:none;" d="M55 215L56 216L55 215z"/>
<path style="fill:#c1bcc1; stroke:none;" d="M279 215L280 216L279 215z"/>
<path style="fill:#737382; stroke:none;" d="M380 215L381 216L380 215M422 215L423 216L422 215M571 215L572 216L571 215z"/>
<path style="fill:#c1bcc1; stroke:none;" d="M715 215L716 216L715 215M761.333 215.667L761.667 216.333L761.333 215.667z"/>
<path style="fill:#737382; stroke:none;" d="M1039 215L1040 216L1039 215z"/>
<path style="fill:#c1bcc1; stroke:none;" d="M1080 215L1081 216L1080 215z"/>
<path style="fill:#737382; stroke:none;" d="M279 216L280 217L279 216z"/>
<path style="fill:#c1bcc1; stroke:none;" d="M321 216L322 217L321 216z"/>
<path style="fill:#737382; stroke:none;" d="M379 216L380 217L379 216z"/>
<path style="fill:#c1bcc1; stroke:none;" d="M421.333 216.667L421.667 217.333L421.333 216.667M532.333 216.667L532.667 217.333L532.333 216.667M571 216L572 217L571 216z"/>
<path style="fill:#737382; stroke:none;" d="M616 216L617 217L616 216M676 216L677 217L676 216M716 216L717 217L716 216z"/>
<path style="fill:#c1bcc1; stroke:none;" d="M1079 216L1080 217L1079 216z"/>
<path style="fill:#737382; stroke:none;" d="M215 217L216 218L215 217z"/>
<path style="fill:#c1bcc1; stroke:none;" d="M280 217L281 218L280 217M322 217L323 218L322 217M379 217L380 218L379 217z"/>
<path style="fill:#737382; stroke:none;" d="M572 217L573 218L572 217z"/>
<path style="fill:#c1bcc1; stroke:none;" d="M716 217L717 218L716 217M760 217L761 218L760 217M1038 217L1039 218L1038 217z"/>
<path style="fill:#737382; stroke:none;" d="M1079 217L1080 218L1079 217M1132 217L1133 218L1132 217M1169 217L1170 218L1169 217M56 218L57 219L56 218M280 218L281 219L280 218z"/>
<path style="fill:#c1bcc1; stroke:none;" d="M323 218L324 219L323 218M378 218L379 219L378 218z"/>
<path style="fill:#737382; stroke:none;" d="M532 218L533 219L532 218z"/>
<path style="fill:#c1bcc1; stroke:none;" d="M572 218L573 219L572 218M615 218L616 219L615 218M677 218L677 221L678 221L677 218z"/>
<path style="fill:#737382; stroke:none;" d="M717 218L718 219L717 218z"/>
<path style="fill:#c1bcc1; stroke:none;" d="M1037 218L1038 219L1037 218z"/>
<path style="fill:#737382; stroke:none;" d="M1078 218L1079 219L1078 218z"/>
<path style="fill:#c1bcc1; stroke:none;" d="M1169 218L1170 219L1169 218z"/>
<path style="fill:#737382; stroke:none;" d="M214 219L215 220L214 219z"/>
<path style="fill:#c1bcc1; stroke:none;" d="M281.333 219.667L281.667 220.333L281.333 219.667M324 219L325 220L324 219M377 219L378 220L377 219M420 219L421 220L420 219M573 219L574 220L573 219M759 219L760 220L759 219M1036 219L1037 220L1036 219z"/>
<path style="fill:#737382; stroke:none;" d="M1077 219L1078 220L1077 219z"/>
<path style="fill:#c1bcc1; stroke:none;" d="M1133.33 219.667L1133.67 220.333L1133.33 219.667z"/>
<path style="fill:#737382; stroke:none;" d="M57 220L58 221L57 220z"/>
<path style="fill:#c1bcc1; stroke:none;" d="M325 220L326 221L325 220z"/>
<path style="fill:#737382; stroke:none;" d="M375 220L376 221L375 220M574 220L575 221L574 220z"/>
<path style="fill:#c1bcc1; stroke:none;" d="M614 220L615 221L614 220M718 220L719 221L718 220z"/>
<path style="fill:#737382; stroke:none;" d="M758 220L759 221L758 220M1035 220L1036 221L1035 220z"/>
<path style="fill:#c1bcc1; stroke:none;" d="M1076 220L1077 221L1076 220M1170 220L1171 221L1170 220z"/>
<path style="fill:#737382; stroke:none;" d="M213 221L214 222L213 221M327 221L328 222L327 221M374 221L375 222L374 221z"/>
<path style="fill:#c1bcc1; stroke:none;" d="M419 221L420 222L419 221M533 221L534 222L533 221M574 221L575 222L574 221M613 221L614 222L613 221z"/>
<path style="fill:#737382; stroke:none;" d="M719 221L720 222L719 221M1034 221L1035 222L1034 221z"/>
<path style="fill:#c1bcc1; stroke:none;" d="M1075 221L1076 222L1075 221z"/>
<path style="fill:#737382; stroke:none;" d="M1133 221L1134 222L1133 221M1208 221L1209 222L1208 221z"/>
<path style="fill:#c1bcc1; stroke:none;" d="M1209 221L1209 222C1218.6 222 1239.29 218.158 1247 224C1248.54 219.906 1241.6 221 1239 221L1209 221z"/>
<path style="fill:#737382; stroke:none;" d="M58 222L59 223L58 222z"/>
<path style="fill:#c1bcc1; stroke:none;" d="M282 222L283 223L282 222M328 222L329 223L328 222M373 222L374 223L373 222z"/>
<path style="fill:#737382; stroke:none;" d="M533 222L534 223L533 222z"/>
<path style="fill:#c1bcc1; stroke:none;" d="M575 222L576 223L575 222z"/>
<path style="fill:#737382; stroke:none;" d="M612 222L613 223L612 222z"/>
<path style="fill:#c1bcc1; stroke:none;" d="M678.333 222.667L678.667 223.333L678.333 222.667z"/>
<path style="fill:#737382; stroke:none;" d="M720 222L721 223L720 222z"/>
<path style="fill:#c1bcc1; stroke:none;" d="M757 222L758 223L757 222M1034 222L1035 223L1034 222M1074 222L1075 223L1074 222M1171 222L1172 223L1171 222M1208 222L1209 223L1208 222M283 223L284 224L283 223M329 223L330 224L329 223z"/>
<path style="fill:#737382; stroke:none;" d="M330 223L331 224L330 223M371 223L372 224L371 223z"/>
<path style="fill:#c1bcc1; stroke:none;" d="M418 223L419 224L418 223M576 223L577 224L576 223z"/>
<path style="fill:#737382; stroke:none;" d="M611 223L612 224L611 223M721 223L722 224L721 223z"/>
<path style="fill:#c1bcc1; stroke:none;" d="M756 223L757 224L756 223M1033 223L1034 224L1033 223M1134 223L1135 224L1134 223z"/>
<path style="fill:#737382; stroke:none;" d="M1207 223L1208 224L1207 223M212 224L213 225L212 224M283 224L284 225L283 224z"/>
<path style="fill:#c1bcc1; stroke:none;" d="M331 224L332 225L331 224z"/>
<path style="fill:#737382; stroke:none;" d="M332 224L333 225L332 224M369 224L370 225L369 224z"/>
<path style="fill:#c1bcc1; stroke:none;" d="M370 224L371 225L370 224M534.333 224.667L534.667 225.333L534.333 224.667M577 224L578 225L577 224z"/>
<path style="fill:#737382; stroke:none;" d="M610 224L611 225L610 224M678 224L679 225L678 224M722 224L723 225L722 224z"/>
<path style="fill:#c1bcc1; stroke:none;" d="M755 224L756 225L755 224M1032 224L1033 225L1032 224z"/>
<path style="fill:#737382; stroke:none;" d="M1073 224L1074 225L1073 224M1134 224L1135 225L1134 224z"/>
<path style="fill:#c1bcc1; stroke:none;" d="M1172 224L1173 225L1172 224z"/>
<path style="fill:#737382; stroke:none;" d="M1247 224L1248 225L1247 224M59 225L60 226L59 225z"/>
<path style="fill:#c1bcc1; stroke:none;" d="M284 225L285 226L284 225M333 225L334 226L333 225z"/>
<path style="fill:#737382; stroke:none;" d="M334 225L335 226L334 225M367 225L368 226L367 225z"/>
<path style="fill:#c1bcc1; stroke:none;" d="M368 225L369 226L368 225M417 225L418 226L417 225M578 225L579 226L578 225z"/>
<path style="fill:#737382; stroke:none;" d="M579 225L580 226L579 225z"/>
<path style="fill:#c1bcc1; stroke:none;" d="M609 225L610 226L609 225M723 225L724 226L723 225z"/>
<path style="fill:#737382; stroke:none;" d="M753 225L754 226L753 225z"/>
<path style="fill:#c1bcc1; stroke:none;" d="M754 225L755 226L754 225z"/>
<path style="fill:#737382; stroke:none;" d="M1031 225L1032 226L1031 225M1072 225L1073 226L1072 225z"/>
<path style="fill:#c1bcc1; stroke:none;" d="M1173 225L1174 226L1173 225M1206 225L1207 226L1206 225z"/>
<path style="fill:#737382; stroke:none;" d="M211 226L212 227L211 226M284 226L285 227L284 226z"/>
<path style="fill:#c1bcc1; stroke:none;" d="M335 226L336 227L335 226z"/>
<path style="fill:#737382; stroke:none;" d="M336 226L337 227L336 226z"/>
<path style="fill:#c1bcc1; stroke:none;" d="M365.667 226.333L366.333 226.667L365.667 226.333M580 226L581 227L580 226z"/>
<path style="fill:#737382; stroke:none;" d="M607 226L608 227L607 226z"/>
<path style="fill:#c1bcc1; stroke:none;" d="M608 226L609 227L608 226M679 226L680 227L679 226M724 226L725 227L724 226z"/>
<path style="fill:#737382; stroke:none;" d="M725 226L726 227L725 226z"/>
<path style="fill:#c1bcc1; stroke:none;" d="M752 226L753 227L752 226z"/>
<path style="fill:#737382; stroke:none;" d="M1030 226L1031 227L1030 226z"/>
<path style="fill:#c1bcc1; stroke:none;" d="M1071 226L1072 227L1071 226M1135 226L1136 227L1135 226z"/>
<path style="fill:#737382; stroke:none;" d="M1174 226L1175 227L1174 226z"/>
<path style="fill:#c1bcc1; stroke:none;" d="M1205 226L1206 227L1205 226M1246 226L1247 227L1246 226z"/>
<path style="fill:#737382; stroke:none;" d="M60 227L61 228L60 227z"/>
<path style="fill:#c1bcc1; stroke:none;" d="M285 227L286 228L285 227M338.667 227.333L339.333 227.667L338.667 227.333z"/>
<path style="fill:#737382; stroke:none;" d="M361 227L362 228L361 227z"/>
<path style="fill:#c1bcc1; stroke:none;" d="M362.667 227.333L363.333 227.667L362.667 227.333z"/>
<path style="fill:#737382; stroke:none;" d="M416 227L417 228L416 227z"/>
<path style="fill:#c1bcc1; stroke:none;" d="M535.333 227.667L535.667 228.333L535.333 227.667M581 227L582 228L581 227z"/>
<path style="fill:#737382; stroke:none;" d="M582 227L583 228L582 227z"/>
<path style="fill:#c1bcc1; stroke:none;" d="M606 227L607 228L606 227z"/>
<path style="fill:#737382; stroke:none;" d="M679 227L680 228L679 227z"/>
<path style="fill:#c1bcc1; stroke:none;" d="M726 227L727 228L726 227z"/>
<path style="fill:#737382; stroke:none;" d="M750 227L751 228L750 227z"/>
<path style="fill:#c1bcc1; stroke:none;" d="M751 227L752 228L751 227z"/>
<path style="fill:#737382; stroke:none;" d="M1029 227L1030 228L1029 227z"/>
<path style="fill:#c1bcc1; stroke:none;" d="M1070 227L1071 228L1070 227z"/>
<path style="fill:#737382; stroke:none;" d="M1135 227L1136 228L1135 227M1175 227L1176 228L1175 227M1204 227L1205 228L1204 227M1246 227L1247 228L1246 227M61 228L62 229L61 228z"/>
<path style="fill:#c1bcc1; stroke:none;" d="M286 228L287 229L286 228M342 228L342 229L345 229L342 228z"/>
<path style="fill:#737382; stroke:none;" d="M345 228L346 229L345 228M356 228L357 229L356 228z"/>
<path style="fill:#c1bcc1; stroke:none;" d="M357 228L357 229L360 229L357 228M415 228L416 229L415 228M583 228L584 229L583 228z"/>
<path style="fill:#737382; stroke:none;" d="M584 228L585 229L584 228z"/>
<path style="fill:#c1bcc1; stroke:none;" d="M604 228L605 229L604 228M728 228L729 229L728 228z"/>
<path style="fill:#737382; stroke:none;" d="M748 228L749 229L748 228z"/>
<path style="fill:#c1bcc1; stroke:none;" d="M749 228L750 229L749 228M1029 228L1030 229L1029 228M1069 228L1070 229L1069 228M1136.33 228.667L1136.67 229.333L1136.33 228.667M1176 228L1177 229L1176 228M1203 228L1204 229L1203 228z"/>
<path style="fill:#737382; stroke:none;" d="M209 229L210 230L209 229M286 229L287 230L286 229z"/>
<path style="fill:#c1bcc1; stroke:none;" d="M585.667 229.333L586.333 229.667L585.667 229.333z"/>
<path style="fill:#737382; stroke:none;" d="M587 229L588 230L587 229M601 229L602 230L601 229z"/>
<path style="fill:#c1bcc1; stroke:none;" d="M602 229L603 230L602 229M680 229L681 230L680 229M730 229L731 230L730 229z"/>
<path style="fill:#737382; stroke:none;" d="M731 229L732 230L731 229M745 229L746 230L745 229z"/>
<path style="fill:#c1bcc1; stroke:none;" d="M746.667 229.333L747.333 229.667L746.667 229.333M1028 229L1029 230L1028 229M1068 229L1069 230L1068 229M1177 229L1178 230L1177 229z"/>
<path style="fill:#737382; stroke:none;" d="M1178 229L1179 230L1178 229M1201 229L1202 230L1201 229z"/>
<path style="fill:#c1bcc1; stroke:none;" d="M1202 229L1203 230L1202 229M1245 229L1246 230L1245 229z"/>
<path style="fill:#737382; stroke:none;" d="M62 230L63 231L62 230z"/>
<path style="fill:#c1bcc1; stroke:none;" d="M287 230L288 231L287 230z"/>
<path style="fill:#737382; stroke:none;" d="M414 230L415 231L414 230z"/>
<path style="fill:#c1bcc1; stroke:none;" d="M536 230L537 231L536 230M589 230L589 231L593 231L589 230z"/>
<path style="fill:#737382; stroke:none;" d="M593.667 230.333L594.333 230.667L593.667 230.333z"/>
<path style="fill:#c1bcc1; stroke:none;" d="M595 230L595 231L600 231L595 230z"/>
<path style="fill:#737382; stroke:none;" d="M680 230L681 231L680 230z"/>
<path style="fill:#c1bcc1; stroke:none;" d="M733 230L733 231L738 231L733 230z"/>
<path style="fill:#737382; stroke:none;" d="M738 230L739 231L738 230z"/>
<path style="fill:#c1bcc1; stroke:none;" d="M739 230L739 231L744 231L739 230M1027 230L1028 231L1027 230z"/>
<path style="fill:#737382; stroke:none;" d="M1068 230L1069 231L1068 230z"/>
<path style="fill:#c1bcc1; stroke:none;" d="M1179 230L1180 231L1179 230M1200 230L1201 231L1200 230z"/>
<path style="fill:#737382; stroke:none;" d="M208 231L209 232L208 231z"/>
<path style="fill:#c1bcc1; stroke:none;" d="M288 231L289 232L288 231M413 231L414 232L413 231z"/>
<path style="fill:#737382; stroke:none;" d="M536 231L537 232L536 231z"/>
<path style="fill:#c1bcc1; stroke:none;" d="M681 231L682 232L681 231z"/>
<path style="fill:#737382; stroke:none;" d="M1026 231L1027 232L1026 231z"/>
<path style="fill:#c1bcc1; stroke:none;" d="M1137 231L1138 232L1137 231M1181 231L1182 232L1181 231z"/>
<path style="fill:#737382; stroke:none;" d="M1182 231L1183 232L1182 231M1197 231L1198 232L1197 231z"/>
<path style="fill:#c1bcc1; stroke:none;" d="M1198 231L1199 232L1198 231M1244 231L1245 232L1244 231z"/>
<path style="fill:#737382; stroke:none;" d="M63 232L64 233L63 232M288 232L289 233L288 232z"/>
<path style="fill:#c1bcc1; stroke:none;" d="M412 232L413 233L412 232M537 232L538 233L537 232z"/>
<path style="fill:#737382; stroke:none;" d="M681 232L682 233L681 232z"/>
<path style="fill:#c1bcc1; stroke:none;" d="M1026 232L1026 261L1027 261L1026 232M1184 232L1184 233L1187 233L1184 232z"/>
<path style="fill:#737382; stroke:none;" d="M1187 232L1188 233L1187 232M1192 232L1193 233L1192 232z"/>
<path style="fill:#c1bcc1; stroke:none;" d="M1193 232L1193 233L1196 233L1193 232z"/>
<path style="fill:#737382; stroke:none;" d="M1244 232L1245 233L1244 232M64 233L65 234L64 233M289 233L290 234L289 233M412 233L413 234L412 233M537 233L538 234L537 233z"/>
<path style="fill:#c1bcc1; stroke:none;" d="M682 233L683 234L682 233M1138 233L1139 234L1138 233M1243 233L1244 234L1243 233z"/>
<path style="fill:#737382; stroke:none;" d="M206 234L207 235L206 234z"/>
<path style="fill:#c1bcc1; stroke:none;" d="M290 234L291 235L290 234z"/>
<path style="fill:#737382; stroke:none;" d="M411 234L412 235L411 234z"/>
<path style="fill:#c1bcc1; stroke:none;" d="M538 234L539 235L538 234z"/>
<path style="fill:#737382; stroke:none;" d="M682 234L683 235L682 234M65 235L66 236L65 235z"/>
<path style="fill:#c1bcc1; stroke:none;" d="M291 235L292 236L291 235M410 235L411 236L410 235z"/>
<path style="fill:#737382; stroke:none;" d="M538 235L539 236L538 235z"/>
<path style="fill:#c1bcc1; stroke:none;" d="M683 235L684 236L683 235M1139 235L1140 236L1139 235M1242 235L1243 236L1242 235z"/>
<path style="fill:#737382; stroke:none;" d="M66 236L67 237L66 236z"/>
<path style="fill:#c1bcc1; stroke:none;" d="M292 236L293 237L292 236M409 236L410 237L409 236M539 236L540 237L539 236z"/>
<path style="fill:#737382; stroke:none;" d="M683 236L684 237L683 236z"/>
<path style="fill:#c1bcc1; stroke:none;" d="M1140 236L1141 237L1140 236z"/>
<path style="fill:#737382; stroke:none;" d="M204 237L205 238L204 237M292 237L293 238L292 237z"/>
<path style="fill:#c1bcc1; stroke:none;" d="M408 237L409 238L408 237z"/>
<path style="fill:#737382; stroke:none;" d="M539 237L540 238L539 237z"/>
<path style="fill:#c1bcc1; stroke:none;" d="M684 237L685 238L684 237z"/>
<path style="fill:#737382; stroke:none;" d="M1140 237L1141 238L1140 237M1241 237L1242 238L1241 237M203 238L204 239L203 238M293 238L294 239L293 238z"/>
<path style="fill:#c1bcc1; stroke:none;" d="M540 238L541 239L540 238z"/>
<path style="fill:#737382; stroke:none;" d="M684 238L685 239L684 238z"/>
<path style="fill:#c1bcc1; stroke:none;" d="M1141 238L1142 239L1141 238M1240 238L1241 239L1240 238z"/>
<path style="fill:#737382; stroke:none;" d="M68 239L69 240L68 239M294 239L295 240L294 239M407 239L408 240L407 239z"/>
<path style="fill:#c1bcc1; stroke:none;" d="M685 239L686 240L685 239M1142 239L1143 240L1142 239z"/>
<path style="fill:#737382; stroke:none;" d="M69 240L70 241L69 240M295 240L296 241L295 240M406 240L407 241L406 240M541 240L542 241L541 240z"/>
<path style="fill:#c1bcc1; stroke:none;" d="M686 240L687 241L686 240z"/>
<path style="fill:#737382; stroke:none;" d="M1142 240L1143 241L1142 240M1239 240L1240 241L1239 240M201 241L202 242L201 241M296 241L297 242L296 241M405 241L406 242L405 241z"/>
<path style="fill:#c1bcc1; stroke:none;" d="M542 241L543 242L542 241z"/>
<path style="fill:#737382; stroke:none;" d="M686 241L687 242L686 241M1143 241L1144 242L1143 241z"/>
<path style="fill:#c1bcc1; stroke:none;" d="M1238 241L1239 242L1238 241z"/>
<path style="fill:#737382; stroke:none;" d="M200 242L201 243L200 242M297 242L298 243L297 242z"/>
<path style="fill:#c1bcc1; stroke:none;" d="M403 242L404 243L403 242z"/>
<path style="fill:#737382; stroke:none;" d="M404 242L405 243L404 242z"/>
<path style="fill:#c1bcc1; stroke:none;" d="M543 242L544 243L543 242M687 242L688 243L687 242M1144 242L1145 243L1144 242M1237 242L1238 243L1237 242z"/>
<path style="fill:#737382; stroke:none;" d="M199 243L200 244L199 243M298 243L299 244L298 243z"/>
<path style="fill:#c1bcc1; stroke:none;" d="M402 243L403 244L402 243z"/>
<path style="fill:#737382; stroke:none;" d="M543 243L544 244L543 243z"/>
<path style="fill:#c1bcc1; stroke:none;" d="M688 243L689 244L688 243M1145 243L1146 244L1145 243M1236 243L1237 244L1236 243z"/>
<path style="fill:#737382; stroke:none;" d="M198 244L199 245L198 244z"/>
<path style="fill:#c1bcc1; stroke:none;" d="M300 244L301 245L300 244M401 244L402 245L401 244z"/>
<path style="fill:#737382; stroke:none;" d="M544 244L545 245L544 244z"/>
<path style="fill:#c1bcc1; stroke:none;" d="M689 244L690 245L689 244M1146 244L1147 245L1146 244M1235 244L1236 245L1235 244z"/>
<path style="fill:#737382; stroke:none;" d="M197 245L198 246L197 245z"/>
<path style="fill:#c1bcc1; stroke:none;" d="M301 245L302 246L301 245M400 245L401 246L400 245M545 245L546 246L545 245M619 245L620 246L619 245z"/>
<path style="fill:#737382; stroke:none;" d="M689 245L690 246L689 245z"/>
<path style="fill:#c1bcc1; stroke:none;" d="M764 245L764 261L765 261L764 245M1147 245L1148 246L1147 245z"/>
<path style="fill:#737382; stroke:none;" d="M1235 245L1236 246L1235 245z"/>
<path style="fill:#c1bcc1; stroke:none;" d="M302 246L303 247L302 246z"/>
<path style="fill:#737382; stroke:none;" d="M399 246L400 247L399 246z"/>
<path style="fill:#c1bcc1; stroke:none;" d="M546 246L547 247L546 246M618 246L619 247L618 246z"/>
<path style="fill:#737382; stroke:none;" d="M690 246L691 247L690 246M763 246L764 247L763 246z"/>
<path style="fill:#c1bcc1; stroke:none;" d="M1148 246L1149 247L1148 246z"/>
<path style="fill:#737382; stroke:none;" d="M1234 246L1235 247L1234 246M75 247L76 248L75 247M303 247L304 248L303 247z"/>
<path style="fill:#c1bcc1; stroke:none;" d="M397 247L398 248L397 247z"/>
<path style="fill:#737382; stroke:none;" d="M398 247L399 248L398 247z"/>
<path style="fill:#c1bcc1; stroke:none;" d="M547 247L548 248L547 247z"/>
<path style="fill:#737382; stroke:none;" d="M691 247L692 248L691 247z"/>
<path style="fill:#c1bcc1; stroke:none;" d="M762 247L763 248L762 247M1149 247L1150 248L1149 247z"/>
<path style="fill:#737382; stroke:none;" d="M1233 247L1234 248L1233 247M194 248L195 249L194 248z"/>
<path style="fill:#c1bcc1; stroke:none;" d="M305 248L306 249L305 248M396 248L397 249L396 248M548 248L549 249L548 248z"/>
<path style="fill:#737382; stroke:none;" d="M617 248L618 249L617 248M692 248L693 249L692 248z"/>
<path style="fill:#c1bcc1; stroke:none;" d="M761 248L762 249L761 248M1150 248L1151 249L1150 248M1231 248L1232 249L1231 248z"/>
<path style="fill:#737382; stroke:none;" d="M193 249L194 250L193 249M306 249L307 250L306 249M395 249L396 250L395 249z"/>
<path style="fill:#c1bcc1; stroke:none;" d="M549 249L550 250L549 249z"/>
<path style="fill:#737382; stroke:none;" d="M616 249L617 250L616 249M693 249L694 250L693 249z"/>
<path style="fill:#c1bcc1; stroke:none;" d="M760 249L761 250L760 249M1151 249L1152 250L1151 249M1230 249L1231 250L1230 249z"/>
<path style="fill:#737382; stroke:none;" d="M192 250L193 251L192 250M307 250L308 251L307 250z"/>
<path style="fill:#c1bcc1; stroke:none;" d="M308 250L309 251L308 250M393 250L394 251L393 250M550 250L551 251L550 250z"/>
<path style="fill:#737382; stroke:none;" d="M615 250L616 251L615 250M694 250L695 251L694 250M760 250L761 251L760 250z"/>
<path style="fill:#c1bcc1; stroke:none;" d="M1152 250L1153 251L1152 250M1229 250L1230 251L1229 250z"/>
<path style="fill:#737382; stroke:none;" d="M191 251L192 252L191 251M309 251L310 252L309 251z"/>
<path style="fill:#c1bcc1; stroke:none;" d="M391 251L392 252L391 251z"/>
<path style="fill:#737382; stroke:none;" d="M392 251L393 252L392 251z"/>
<path style="fill:#c1bcc1; stroke:none;" d="M551 251L552 252L551 251z"/>
<path style="fill:#737382; stroke:none;" d="M614 251L615 252L614 251M695 251L696 252L695 251M759 251L760 252L759 251M1153 251L1154 252L1153 251M1228 251L1229 252L1228 251M190 252L191 253L190 252z"/>
<path style="fill:#c1bcc1; stroke:none;" d="M311 252L312 253L311 252M390 252L391 253L390 252z"/>
<path style="fill:#737382; stroke:none;" d="M552 252L553 253L552 252M613 252L614 253L613 252z"/>
<path style="fill:#c1bcc1; stroke:none;" d="M697 252L698 253L697 252M757 252L758 253L757 252M1155 252L1156 253L1155 252M1226 252L1227 253L1226 252z"/>
<path style="fill:#737382; stroke:none;" d="M82 253L83 254L82 253z"/>
<path style="fill:#c1bcc1; stroke:none;" d="M313 253L314 254L313 253M388 253L389 254L388 253z"/>
<path style="fill:#737382; stroke:none;" d="M553 253L554 254L553 253z"/>
<path style="fill:#c1bcc1; stroke:none;" d="M554 253L555 254L554 253M611 253L612 254L611 253z"/>
<path style="fill:#737382; stroke:none;" d="M612 253L613 254L612 253z"/>
<path style="fill:#c1bcc1; stroke:none;" d="M698 253L699 254L698 253M756 253L757 254L756 253z"/>
<path style="fill:#737382; stroke:none;" d="M1156 253L1157 254L1156 253M1225 253L1226 254L1225 253M83 254L84 255L83 254M187 254L188 255L187 254M314 254L315 255L314 254z"/>
<path style="fill:#c1bcc1; stroke:none;" d="M315 254L316 255L315 254M386 254L387 255L386 254z"/>
<path style="fill:#737382; stroke:none;" d="M387 254L388 255L387 254z"/>
<path style="fill:#c1bcc1; stroke:none;" d="M555 254L556 255L555 254M610 254L611 255L610 254z"/>
<path style="fill:#737382; stroke:none;" d="M699 254L700 255L699 254z"/>
<path style="fill:#c1bcc1; stroke:none;" d="M755 254L756 255L755 254M1158 254L1159 255L1158 254M1223 254L1224 255L1223 254z"/>
<path style="fill:#737382; stroke:none;" d="M186 255L187 256L186 255M316 255L317 256L316 255z"/>
<path style="fill:#c1bcc1; stroke:none;" d="M317 255L318 256L317 255M384 255L385 256L384 255z"/>
<path style="fill:#737382; stroke:none;" d="M556 255L557 256L556 255z"/>
<path style="fill:#c1bcc1; stroke:none;" d="M557 255L558 256L557 255z"/>
<path style="fill:#737382; stroke:none;" d="M609 255L610 256L609 255z"/>
<path style="fill:#c1bcc1; stroke:none;" d="M701 255L702 256L701 255M753 255L754 256L753 255z"/>
<path style="fill:#737382; stroke:none;" d="M754 255L755 256L754 255M1159 255L1160 256L1159 255z"/>
<path style="fill:#c1bcc1; stroke:none;" d="M1160 255L1161 256L1160 255M1221 255L1222 256L1221 255z"/>
<path style="fill:#737382; stroke:none;" d="M1222 255L1223 256L1222 255M86 256L87 257L86 256z"/>
<path style="fill:#c1bcc1; stroke:none;" d="M319 256L320 257L319 256M382 256L383 257L382 256M558 256L559 257L558 256M607 256L608 257L607 256z"/>
<path style="fill:#737382; stroke:none;" d="M702 256L703 257L702 256z"/>
<path style="fill:#c1bcc1; stroke:none;" d="M703 256L704 257L703 256M752 256L753 257L752 256z"/>
<path style="fill:#737382; stroke:none;" d="M1161 256L1162 257L1161 256z"/>
<path style="fill:#c1bcc1; stroke:none;" d="M1162 256L1163 257L1162 256M1219 256L1220 257L1219 256z"/>
<path style="fill:#737382; stroke:none;" d="M1220 256L1221 257L1220 256M183 257L184 258L183 257M321 257L322 258L321 257z"/>
<path style="fill:#c1bcc1; stroke:none;" d="M322 257L323 258L322 257M379 257L380 258L379 257z"/>
<path style="fill:#737382; stroke:none;" d="M380 257L381 258L380 257z"/>
<path style="fill:#c1bcc1; stroke:none;" d="M560 257L561 258L560 257M605 257L606 258L605 257z"/>
<path style="fill:#737382; stroke:none;" d="M606 257L607 258L606 257M704 257L705 258L704 257z"/>
<path style="fill:#c1bcc1; stroke:none;" d="M705 257L706 258L705 257M750 257L751 258L750 257z"/>
<path style="fill:#737382; stroke:none;" d="M1163 257L1164 258L1163 257z"/>
<path style="fill:#c1bcc1; stroke:none;" d="M1164 257L1165 258L1164 257M1217 257L1218 258L1217 257z"/>
<path style="fill:#737382; stroke:none;" d="M1218 257L1219 258L1218 257M89 258L90 259L89 258M324 258L325 259L324 258z"/>
<path style="fill:#c1bcc1; stroke:none;" d="M325 258L326 259L325 258M376 258L377 259L376 258z"/>
<path style="fill:#737382; stroke:none;" d="M377 258L378 259L377 258z"/>
<path style="fill:#c1bcc1; stroke:none;" d="M562 258L563 259L562 258M603 258L604 259L603 258z"/>
<path style="fill:#737382; stroke:none;" d="M604 258L605 259L604 258M706 258L707 259L706 258z"/>
<path style="fill:#c1bcc1; stroke:none;" d="M707 258L708 259L707 258M748 258L749 259L748 258z"/>
<path style="fill:#737382; stroke:none;" d="M749 258L750 259L749 258z"/>
<path style="fill:#c1bcc1; stroke:none;" d="M1166.67 258.333L1167.33 258.667L1166.67 258.333M1215 258L1216 259L1215 258z"/>
<path style="fill:#737382; stroke:none;" d="M1216 258L1217 259L1216 258M180 259L181 260L180 259M327 259L328 260L327 259z"/>
<path style="fill:#c1bcc1; stroke:none;" d="M328 259L329 260L328 259M373 259L374 260L373 259z"/>
<path style="fill:#737382; stroke:none;" d="M374 259L375 260L374 259M564 259L565 260L564 259z"/>
<path style="fill:#c1bcc1; stroke:none;" d="M565 259L566 260L565 259M601 259L602 260L601 259z"/>
<path style="fill:#737382; stroke:none;" d="M602 259L603 260L602 259M708 259L709 260L708 259z"/>
<path style="fill:#c1bcc1; stroke:none;" d="M709 259L710 260L709 259M746 259L747 260L746 259z"/>
<path style="fill:#737382; stroke:none;" d="M1168 259L1169 260L1168 259z"/>
<path style="fill:#c1bcc1; stroke:none;" d="M1169.67 259.333L1170.33 259.667L1169.67 259.333M1212 259L1213 260L1212 259z"/>
<path style="fill:#737382; stroke:none;" d="M1213 259L1214 260L1213 259M92 260L93 261L92 260M178 260L179 261L178 260M330 260L331 261L330 260z"/>
<path style="fill:#c1bcc1; stroke:none;" d="M331.667 260.333L332.333 260.667L331.667 260.333M369.667 260.333L370.333 260.667L369.667 260.333z"/>
<path style="fill:#737382; stroke:none;" d="M371 260L372 261L371 260z"/>
<path style="fill:#c1bcc1; stroke:none;" d="M567.667 260.333L568.333 260.667L567.667 260.333M598 260L599 261L598 260z"/>
<path style="fill:#737382; stroke:none;" d="M599 260L600 261L599 260M711 260L712 261L711 260z"/>
<path style="fill:#c1bcc1; stroke:none;" d="M712 260L713 261L712 260M743 260L744 261L743 260z"/>
<path style="fill:#737382; stroke:none;" d="M744 260L745 261L744 260M1171 260L1172 261L1171 260z"/>
<path style="fill:#c1bcc1; stroke:none;" d="M1172.67 260.333L1173.33 260.667L1172.67 260.333M1208.67 260.333L1209.33 260.667L1208.67 260.333z"/>
<path style="fill:#737382; stroke:none;" d="M1210 260L1211 261L1210 260M94 261L95 262L94 261M335 261L336 262L335 261z"/>
<path style="fill:#c1bcc1; stroke:none;" d="M336 261L336 262L339 262L336 261M363 261L363 262L366 262L363 261z"/>
<path style="fill:#737382; stroke:none;" d="M366 261L367 262L366 261M570 261L571 262L570 261z"/>
<path style="fill:#c1bcc1; stroke:none;" d="M571.667 261.333L572.333 261.667L571.667 261.333M594.667 261.333L595.333 261.667L594.667 261.333z"/>
<path style="fill:#737382; stroke:none;" d="M596 261L597 262L596 261M714 261L715 262L714 261z"/>
<path style="fill:#c1bcc1; stroke:none;" d="M715.667 261.333L716.333 261.667L715.667 261.333M739.667 261.333L740.333 261.667L739.667 261.333z"/>
<path style="fill:#737382; stroke:none;" d="M741 261L742 262L741 261M1175 261L1176 262L1175 261z"/>
<path style="fill:#c1bcc1; stroke:none;" d="M1176.67 261.333L1177.33 261.667L1176.67 261.333M1204.67 261.333L1205.33 261.667L1204.67 261.333z"/>
<path style="fill:#737382; stroke:none;" d="M1206 261L1207 262L1206 261M96 262L97 263L96 262M175 262L176 263L175 262z"/>
<path style="fill:#c1bcc1; stroke:none;" d="M342 262L342 263L360 263L342 262M575 262L575 263L579 263L575 262M588 262L588 263L592 263L588 262z"/>
<path style="fill:#737382; stroke:none;" d="M719 262L720 263L719 262z"/>
<path style="fill:#c1bcc1; stroke:none;" d="M720 262L720 263L724 263L720 262M732 262L732 263L736 263L732 262z"/>
<path style="fill:#737382; stroke:none;" d="M736 262L737 263L736 262M1181 262L1182 263L1181 262z"/>
<path style="fill:#c1bcc1; stroke:none;" d="M1182 262L1182 263L1186 263L1182 262M1197 262L1197 263L1201 263L1197 262z"/>
<path style="fill:#737382; stroke:none;" d="M1201 262L1202 263L1201 262M98 263L99 264L98 263M173 263L174 264L173 263M619 263L620 264L619 263M100 264L101 265L100 264M171 264L172 265L171 264z"/>
<path style="fill:#c1bcc1; stroke:none;" d="M619 264L619 268L620 268L619 264z"/>
<path style="fill:#737382; stroke:none;" d="M102 265L103 266L102 265M169 265L170 266L169 265M104.667 266.333L105.333 266.667L104.667 266.333M166 266L167 267L166 266M107.667 267.333L108.333 267.667L107.667 267.333M163.667 267.333L164.333 267.667L163.667 267.333M110 268L111 269L110 268M160 268L161 269L160 268M113.667 269.333L114.333 269.667L113.667 269.333M156.667 269.333L157.333 269.667L156.667 269.333M656 269L657 270L656 269M117.667 270.333L118.333 270.667L117.667 270.333M153 270L154 271L153 270M618 270L619 271L618 270M123 271L123 272L126 272L123 271M146 271L146 272L149 272L146 271z"/>
<path style="fill:#c1bcc1; stroke:none;" d="M618.333 271.667L618.667 272.333L618.333 271.667M535 273L535 276L536 276L535 273M571 273L572 274L571 273z"/>
<path style="fill:#737382; stroke:none;" d="M617 273L618 274L617 273z"/>
<path style="fill:#c1bcc1; stroke:none;" d="M655.333 273.667L655.667 274.333L655.333 273.667z"/>
<path style="fill:#737382; stroke:none;" d="M572 274L573 275L572 274z"/>
<path style="fill:#c1bcc1; stroke:none;" d="M617 274L618 275L617 274M572 275L573 276L572 275z"/>
<path style="fill:#737382; stroke:none;" d="M655 275L656 276L655 275M573 276L574 277L573 276z"/>
<path style="fill:#c1bcc1; stroke:none;" d="M616 276L617 277L616 276M573 277L574 278L573 277M536.333 278.667L536.667 279.333L536.333 278.667z"/>
<path style="fill:#737382; stroke:none;" d="M574 278L575 279L574 278z"/>
<path style="fill:#c1bcc1; stroke:none;" d="M615 278L616 279L615 278M654.333 278.667L654.667 279.333L654.333 278.667z"/>
<path style="fill:#737382; stroke:none;" d="M575 279L576 280L575 279z"/>
<path style="fill:#c1bcc1; stroke:none;" d="M614 279L615 280L614 279z"/>
<path style="fill:#737382; stroke:none;" d="M536 280L537 281L536 280z"/>
<path style="fill:#c1bcc1; stroke:none;" d="M575 280L576 281L575 280z"/>
<path style="fill:#737382; stroke:none;" d="M613 280L614 281L613 280z"/>
<path style="fill:#c1bcc1; stroke:none;" d="M576 281L577 282L576 281z"/>
<path style="fill:#737382; stroke:none;" d="M612 281L613 282L612 281z"/>
<path style="fill:#c1bcc1; stroke:none;" d="M653.333 281.667L653.667 282.333L653.333 281.667M537.333 282.667L537.667 283.333L537.333 282.667z"/>
<path style="fill:#737382; stroke:none;" d="M578 282L579 283L578 282M611 282L612 283L611 282z"/>
<path style="fill:#c1bcc1; stroke:none;" d="M579 283L580 284L579 283M610 283L611 284L610 283z"/>
<path style="fill:#737382; stroke:none;" d="M653 283L654 284L653 283M537 284L538 285L537 284M581 284L582 285L581 284M608 284L609 285L608 284z"/>
<path style="fill:#c1bcc1; stroke:none;" d="M609 284L610 285L609 284M652.333 284.667L652.667 285.333L652.333 284.667M538.333 285.667L538.667 286.333L538.333 285.667M582.667 285.333L583.333 285.667L582.667 285.333z"/>
<path style="fill:#737382; stroke:none;" d="M606 285L607 286L606 285z"/>
<path style="fill:#c1bcc1; stroke:none;" d="M607 285L608 286L607 285M585.667 286.333L586.333 286.667L585.667 286.333z"/>
<path style="fill:#737382; stroke:none;" d="M603 286L604 287L603 286z"/>
<path style="fill:#c1bcc1; stroke:none;" d="M604 286L605 287L604 286M589 287L589 288L602 288L589 287M651 287L652 288L651 287M539 288L540 289L539 288z"/>
<path style="fill:#737382; stroke:none;" d="M651 288L652 289L651 288M539 289L540 290L539 289z"/>
<path style="fill:#c1bcc1; stroke:none;" d="M650 289L651 290L650 289M540 290L541 291L540 290z"/>
<path style="fill:#737382; stroke:none;" d="M650 290L651 291L650 290M540 291L541 292L540 291z"/>
<path style="fill:#c1bcc1; stroke:none;" d="M649 291L650 292L649 291M541 292L542 293L541 292z"/>
<path style="fill:#737382; stroke:none;" d="M649 292L650 293L649 292M541 293L542 294L541 293z"/>
<path style="fill:#c1bcc1; stroke:none;" d="M648 293L649 294L648 293M542 294L543 295L542 294z"/>
<path style="fill:#737382; stroke:none;" d="M648 294L649 295L648 294z"/>
<path style="fill:#c1bcc1; stroke:none;" d="M543 295L544 296L543 295M647 295L648 296L647 295z"/>
<path style="fill:#737382; stroke:none;" d="M543 296L544 297L543 296z"/>
<path style="fill:#c1bcc1; stroke:none;" d="M646 296L647 297L646 296M544 297L545 298L544 297z"/>
<path style="fill:#737382; stroke:none;" d="M646 297L647 298L646 297z"/>
<path style="fill:#c1bcc1; stroke:none;" d="M545 298L546 299L545 298M645 298L646 299L645 298M644 299L645 300L644 299z"/>
<path style="fill:#737382; stroke:none;" d="M546 300L547 301L546 300z"/>
<path style="fill:#c1bcc1; stroke:none;" d="M643 300L644 301L643 300z"/>
<path style="fill:#737382; stroke:none;" d="M547 301L548 302L547 301M643 301L644 302L643 301M548 302L549 303L548 302M642 302L643 303L642 302M549 303L550 304L549 303M641 303L642 304L641 303M550 304L551 305L550 304M640 304L641 305L640 304M551 305L552 306L551 305M639 305L640 306L639 305z"/>
<path style="fill:#c1bcc1; stroke:none;" d="M553 306L554 307L553 306M637 306L638 307L637 306z"/>
<path style="fill:#737382; stroke:none;" d="M638 306L639 307L638 306z"/>
<path style="fill:#c1bcc1; stroke:none;" d="M554 307L555 308L554 307M636 307L637 308L636 307z"/>
<path style="fill:#737382; stroke:none;" d="M555 308L556 309L555 308z"/>
<path style="fill:#c1bcc1; stroke:none;" d="M635 308L636 309L635 308M557 309L558 310L557 309z"/>
<path style="fill:#737382; stroke:none;" d="M634 309L635 310L634 309M558 310L559 311L558 310z"/>
<path style="fill:#c1bcc1; stroke:none;" d="M559 310L560 311L559 310M632 310L633 311L632 310M560 311L561 312L560 311M630 311L631 312L630 311z"/>
<path style="fill:#737382; stroke:none;" d="M631 311L632 312L631 311z"/>
<path style="fill:#c1bcc1; stroke:none;" d="M562 312L563 313L562 312z"/>
<path style="fill:#737382; stroke:none;" d="M629 312L630 313L629 312z"/>
<path style="fill:#c1bcc1; stroke:none;" d="M564.667 313.333L565.333 313.667L564.667 313.333M627 313L628 314L627 313z"/>
<path style="fill:#737382; stroke:none;" d="M566 314L567 315L566 314z"/>
<path style="fill:#c1bcc1; stroke:none;" d="M567 314L568 315L567 314M624 314L625 315L624 314z"/>
<path style="fill:#737382; stroke:none;" d="M625 314L626 315L625 314M569 315L570 316L569 315z"/>
<path style="fill:#c1bcc1; stroke:none;" d="M570 315L571 316L570 315M622 315L623 316L622 315z"/>
<path style="fill:#737382; stroke:none;" d="M623 315L624 316L623 315M572 316L573 317L572 316z"/>
<path style="fill:#c1bcc1; stroke:none;" d="M573 316L574 317L573 316M618.667 316.333L619.333 316.667L618.667 316.333z"/>
<path style="fill:#737382; stroke:none;" d="M620 316L621 317L620 316M575 317L576 318L575 317z"/>
<path style="fill:#c1bcc1; stroke:none;" d="M576.667 317.333L577.333 317.667L576.667 317.333M615.667 317.333L616.333 317.667L615.667 317.333z"/>
<path style="fill:#737382; stroke:none;" d="M580 318L581 319L580 318z"/>
<path style="fill:#c1bcc1; stroke:none;" d="M581 318L581 319L584 319L581 318M610.667 318.333L611.333 318.667L610.667 318.333z"/>
<path style="fill:#737382; stroke:none;" d="M612 318L613 319L612 318M587 319L588 320L587 319z"/>
<path style="fill:#c1bcc1; stroke:none;" d="M588 319L588 320L606 320L588 319z"/>
<path style="fill:#737382; stroke:none;" d="M606 319L607 320L606 319z"/>
</svg>
